<svg width="132" height="37" viewBox="0 0 132 37" fill="none" xmlns="http://www.w3.org/2000/svg">
<path d="M19.6058 17.1636V17.1771H16.7668V19.8909H19.6058V26.2582C19.6058 30.6579 15.8478 34.2367 11.2278 34.2367C6.60773 34.2367 2.84968 30.6579 2.84968 26.2582V22.6183H0V26.2582C0 32.1539 5.03682 36.9505 11.2278 36.9505C17.4187 36.9505 22.4555 32.1539 22.4555 26.2582V17.1636H19.6058Z" fill="#9F9F9F"/>
<path d="M11.2101 0C5.05044 0 0.0390625 4.81727 0.0390625 10.7383V19.8721H2.87435V19.8584H5.699V17.133H2.87435V10.7383C2.87435 6.3197 6.61341 2.72547 11.2101 2.72547C15.8068 2.72547 19.5459 6.3197 19.5459 10.7383V14.3939H22.3811V10.7383C22.3776 4.81727 17.3662 0 11.2101 0Z" fill="#9F9F9F"/>
<path d="M16.7172 14.3906V10.8918C16.7172 7.97213 14.247 5.59753 11.2097 5.59753C8.17236 5.59753 5.70215 7.97213 5.70215 10.8918V17.1297V19.8552V26.0931C5.70215 29.0127 8.17236 31.3873 11.2097 31.3873C14.247 31.3873 16.7172 29.0127 16.7172 26.0931V22.5942H13.882V26.0931C13.882 27.5103 12.684 28.6619 11.2097 28.6619C9.73536 28.6619 8.53743 27.5103 8.53743 26.0931V19.8552H13.882V17.1297H8.53743V10.8918C8.53743 9.47453 9.73536 8.323 11.2097 8.323C12.684 8.323 13.882 9.47453 13.882 10.8918V14.3906H16.7172Z" fill="#9F9F9F"/>
<path d="M75.8245 19.8826C75.8245 21.254 74.8465 22.7845 72.2228 22.7845C70.6628 22.7845 69.0437 22.1117 68.5469 20.5708L69.9895 20.1342C70.1338 20.7763 70.8923 21.4645 72.2498 21.4645C73.3555 21.4645 74.3336 21.0023 74.3336 19.9956C74.3336 18.6653 73.0939 18.6088 71.4747 18.2287C69.418 17.751 68.9528 16.7136 68.9528 15.4398C68.9528 13.7859 70.4277 12.6251 72.3194 12.6251C73.7776 12.6251 74.9856 13.3801 75.4077 14.7412L73.9811 15.0802C73.7776 14.4896 73.2543 13.9297 72.1751 13.9297C71.197 13.9297 70.4116 14.505 70.4116 15.4449C70.4116 16.693 71.6513 16.8882 72.9496 17.1706C74.9373 17.6124 75.8245 18.3006 75.8245 19.8826Z" fill="#9F9F9F"/>
<path d="M86.4082 20.1908L87.6157 20.9612C86.6808 22.0809 85.2542 22.7845 83.5661 22.7845C80.5468 22.7845 78.3779 20.5708 78.3779 17.6997C78.3779 14.8285 80.5525 12.6251 83.5661 12.6251C85.2594 12.6251 86.6865 13.3133 87.6157 14.4485L86.4082 15.2035C85.7671 14.4485 84.8058 13.9297 83.5661 13.9297C81.1879 13.9297 79.8631 15.7942 79.8631 17.6997C79.8631 19.6052 81.1879 21.4697 83.5661 21.4697C84.8058 21.4645 85.7671 20.9458 86.4082 20.1908Z" fill="#9F9F9F"/>
<path d="M96.1187 22.5998L94.0028 18.8041C93.8855 18.8196 93.7572 18.8196 93.6072 18.8196H91.9138V22.605H90.4551V12.7948H93.602C95.937 12.7948 97.2779 14.1096 97.2779 15.8097C97.2779 17.0013 96.6207 17.9978 95.4402 18.4857L97.8604 22.605H96.1187V22.5998ZM93.6129 17.5458C95.0285 17.5458 95.7875 16.8575 95.7875 15.8097C95.7875 14.7568 95.0285 14.0737 93.6129 14.0737H91.919V17.5509H93.6129V17.5458Z" fill="#9F9F9F"/>
<path d="M102.097 12.7948V22.605H100.639V12.7948H102.097Z" fill="#9F9F9F"/>
<path d="M112.533 15.9998C112.533 17.7923 111.149 19.1945 108.846 19.1945H107.051V22.5998H105.592V12.7897H108.84C111.149 12.7948 112.533 14.2073 112.533 15.9998ZM111.031 15.9998C111.031 14.8493 110.214 14.0685 108.846 14.0685H107.051V17.9207H108.846C110.214 17.9207 111.031 17.1503 111.031 15.9998Z" fill="#9F9F9F"/>
<path d="M121.775 14.0685H119.195V22.605H117.736V14.0685H115.155V12.7948H121.775V14.0685Z" fill="#9F9F9F"/>
<path d="M131.382 19.8826C131.382 21.254 130.404 22.7845 127.78 22.7845C126.22 22.7845 124.601 22.1117 124.104 20.5708L125.547 20.1342C125.691 20.7763 126.45 21.4645 127.807 21.4645C128.913 21.4645 129.891 21.0023 129.891 19.9956C129.891 18.6653 128.652 18.6088 127.032 18.2287C124.975 17.751 124.51 16.7136 124.51 15.4398C124.51 13.7859 125.985 12.6251 127.876 12.6251C129.335 12.6251 130.543 13.3801 130.965 14.7412L129.538 15.0802C129.335 14.4896 128.812 13.9297 127.732 13.9297C126.755 13.9297 125.969 14.505 125.969 15.4449C125.969 16.693 127.209 16.8882 128.507 17.1706C130.495 17.6124 131.382 18.3006 131.382 19.8826Z" fill="#9F9F9F"/>
<path d="M36.1788 21.326V22.5998H30.4082V12.7897H36.0345V14.0634H31.8776V16.8781H35.714V18.1519H31.8776V21.3209H36.1788V21.326Z" fill="#9F9F9F"/>
<path d="M46.3246 15.9998C46.3246 17.7923 44.9407 19.1945 42.6378 19.1945H40.8425V22.5998H39.3838V12.7897H42.6324C44.9407 12.7948 46.3246 14.2073 46.3246 15.9998ZM44.8231 15.9998C44.8231 14.8493 44.0056 14.0685 42.6378 14.0685H40.8425V17.9207H42.6378C44.011 17.9207 44.8231 17.1503 44.8231 15.9998Z" fill="#9F9F9F"/>
<path d="M50.8454 12.7948V22.605H49.3867V12.7948H50.8454Z" fill="#9F9F9F"/>
<path d="M63.0479 21.1461L64.0846 22.1528L63.1652 23.0362L62.0698 21.973C61.2528 22.4917 60.2638 22.7845 59.1684 22.7845C56.1392 22.7845 53.9805 20.5708 53.9805 17.6997C53.9805 14.8285 56.1392 12.6251 59.1684 12.6251C62.1877 12.6251 64.3462 14.8234 64.3462 17.6997C64.3462 19.0557 63.8759 20.2473 63.0479 21.1461ZM61.0492 20.992L59.5054 19.4922L60.4242 18.6088L62.0273 20.1497C62.5827 19.4614 62.861 18.5934 62.861 17.6997C62.861 15.7942 61.5466 13.9297 59.1742 13.9297C56.7964 13.9297 55.4712 15.7942 55.4712 17.6997C55.4712 19.6052 56.7964 21.4697 59.1742 21.4697C59.901 21.4645 60.526 21.2848 61.0492 20.992Z" fill="#9F9F9F"/>
</svg>
