<svg width="118" height="30" viewBox="0 0 118 30" fill="none" xmlns="http://www.w3.org/2000/svg">
<g filter="url(#filter0_d_87_7768)">
<path d="M13.0676 21.3282C12.5528 21.1302 11.9589 20.6946 11.2462 20.1007C10.5334 19.4672 9.97907 18.8336 9.54351 18.2001H9.18714C8.23682 18.2001 7.4053 18.0813 6.73216 17.8041C6.09861 17.5665 5.54426 17.1706 5.1483 16.6954C4.75233 16.1806 4.47516 15.5867 4.27718 14.9136C4.11879 14.2404 4 13.4485 4 12.5378V6.20233C4 5.29162 4.07919 4.46009 4.27718 3.78695C4.47516 3.11381 4.75233 2.51986 5.1483 2.04471C5.54426 1.52995 6.09861 1.17358 6.77175 0.936004C7.44489 0.698425 8.27642 0.540039 9.22674 0.540039C11.0878 0.540039 12.4341 1.0152 13.226 1.96551C14.0179 2.91583 14.4139 4.3413 14.4139 6.20233V12.5378C14.4139 15.1115 13.6615 16.8142 12.1569 17.6061C12.83 18.3584 13.424 18.8336 13.8595 19.0712L13.0676 21.3282ZM8.63279 15.3887C8.79118 15.4679 8.98916 15.5075 9.22674 15.5075C9.46432 15.5075 9.6623 15.4679 9.82068 15.3887C9.97907 15.3095 10.0979 15.1907 10.2166 15.0719C10.2958 14.9532 10.375 14.7948 10.4146 14.5968C10.4542 14.3988 10.4938 14.2404 10.4938 14.0424C10.4938 13.8841 10.5334 13.6861 10.5334 13.4485V5.25202C10.5334 5.01444 10.5334 4.81646 10.4938 4.65807C10.4938 4.49969 10.4542 4.3017 10.4146 4.10372C10.375 3.90574 10.2958 3.74735 10.2166 3.62856C10.1375 3.50977 10.0187 3.43058 9.82068 3.35139C9.6623 3.2722 9.46432 3.2326 9.22674 3.2326C8.98916 3.2326 8.79118 3.2722 8.63279 3.35139C8.4744 3.43058 8.35561 3.50977 8.23682 3.62856C8.15763 3.74735 8.07844 3.90574 8.03884 4.10372C7.99925 4.3017 7.95965 4.46009 7.95965 4.61848C7.95965 4.77686 7.95965 4.97484 7.95965 5.21242V13.4485C7.95965 13.6861 7.95965 13.8841 7.95965 14.0424C7.95965 14.2008 7.99925 14.3988 8.03884 14.5968C8.07844 14.7948 8.15763 14.9532 8.23682 15.0719C8.35561 15.1907 8.4744 15.3095 8.63279 15.3887Z" fill="#9F9F9F"/>
<path d="M29.6983 18.1978C28.9064 18.1978 28.2333 18.1187 27.6393 17.9603C27.0454 17.8019 26.5702 17.5643 26.1742 17.2871C25.7783 17.0099 25.4615 16.614 25.2239 16.1388C24.9863 15.6637 24.828 15.1489 24.7092 14.5946C24.63 14.0402 24.5508 13.3671 24.5508 12.6147V0.775391H28.3124V13.0899C28.3124 13.3671 28.3124 13.6047 28.352 13.763C28.352 13.961 28.3916 14.159 28.4312 14.3966C28.4708 14.6342 28.55 14.7925 28.6292 14.9509C28.7084 15.1093 28.8668 15.2281 29.0252 15.3073C29.1836 15.3865 29.3816 15.4657 29.6191 15.4657C29.8567 15.4657 30.0547 15.4261 30.2131 15.3073C30.3715 15.2281 30.4903 15.1093 30.609 14.9509C30.6882 14.7925 30.7674 14.6342 30.807 14.3966C30.8466 14.159 30.8862 13.961 30.8862 13.763C30.8862 13.5651 30.9258 13.3275 30.9258 13.0899V0.775391H34.6875V12.5355C34.6875 13.4859 34.6083 14.3174 34.4499 14.9509C34.2915 15.6241 34.0143 16.218 33.6184 16.6932C33.2224 17.2079 32.7077 17.5643 32.0345 17.8019C31.3614 18.0395 30.6882 18.1978 29.6983 18.1978Z" fill="#9F9F9F"/>
<path d="M44.4678 17.9603L47.7147 0.775391H51.9911L55.238 17.9603H51.7535L51.1596 14.3174H48.665L48.0711 17.9603H44.4678ZM48.9422 12.0208H50.7636L49.8529 5.36858L48.9422 12.0208Z" fill="#9F9F9F"/>
<path d="M65.0186 17.9603V0.775391H69.6909C70.4037 0.775391 71.0768 0.814987 71.6312 0.89418C72.1855 0.973373 72.7003 1.13176 73.215 1.32974C73.6902 1.52772 74.1257 1.8049 74.4425 2.16127C74.7593 2.51763 74.9969 2.9532 75.1948 3.46795C75.3928 3.9827 75.472 4.61625 75.472 5.32898C75.472 6.43769 75.3136 7.3484 74.9969 8.06114C74.6801 8.73428 74.1257 9.28863 73.3338 9.645L75.7096 17.9603H71.75L69.8493 10.2785H68.7802V17.9603H65.0186ZM68.7802 8.06114H69.7701C70.5621 8.06114 71.0768 7.86316 71.3936 7.46719C71.7104 7.07123 71.8687 6.47728 71.8687 5.64576C71.8687 4.85383 71.7104 4.25988 71.4332 3.86391C71.156 3.46795 70.6413 3.26997 69.9285 3.26997H68.7406V8.06114H68.7802Z" fill="#9F9F9F"/>
<path d="M87.3512 17.9603V3.58674H84.6982V0.775391H93.7658V3.58674H91.1525V17.9603H87.3512Z" fill="#9F9F9F"/>
<path d="M108.219 18.2001C107.269 18.2001 106.437 18.0813 105.764 17.8041C105.091 17.5665 104.536 17.1706 104.14 16.6558C103.745 16.141 103.467 15.5471 103.269 14.874C103.111 14.2008 102.992 13.4089 102.992 12.4982V6.16274C102.992 5.25202 103.071 4.42049 103.269 3.74735C103.428 3.07421 103.745 2.48027 104.14 2.00511C104.536 1.49035 105.091 1.13399 105.764 0.896407C106.437 0.658828 107.269 0.540039 108.219 0.540039C110.08 0.540039 111.426 1.0152 112.218 1.96551C113.01 2.91583 113.406 4.3413 113.406 6.20233V12.5378C113.406 14.3988 113.01 15.8243 112.218 16.7746C111.387 17.7249 110.08 18.2001 108.219 18.2001ZM107.625 15.3887C107.783 15.4679 107.981 15.5075 108.219 15.5075C108.457 15.5075 108.654 15.4679 108.813 15.3887C108.971 15.3095 109.09 15.1907 109.209 15.0719C109.288 14.9532 109.367 14.7948 109.407 14.5968C109.446 14.3988 109.486 14.2404 109.526 14.0424C109.526 13.884 109.565 13.6861 109.565 13.4485V5.25202C109.565 5.01444 109.565 4.81646 109.526 4.65807C109.526 4.49969 109.486 4.3017 109.407 4.10372C109.367 3.90574 109.288 3.74735 109.209 3.62856C109.13 3.50977 109.011 3.43058 108.813 3.35139C108.654 3.2722 108.457 3.2326 108.219 3.2326C107.981 3.2326 107.783 3.2722 107.625 3.35139C107.467 3.43058 107.348 3.50977 107.229 3.62856C107.15 3.74735 107.071 3.90574 107.031 4.10372C106.991 4.3017 106.952 4.46009 106.952 4.61848C106.952 4.77686 106.952 4.97484 106.952 5.21242V13.4485C106.952 13.6861 106.952 13.884 106.952 14.0424C106.952 14.2008 106.991 14.3988 107.031 14.5968C107.071 14.7948 107.15 14.9532 107.229 15.0719C107.348 15.1907 107.467 15.3095 107.625 15.3887Z" fill="#9F9F9F"/>
</g>
<defs>
<filter id="filter0_d_87_7768" x="0" y="0.540039" width="117.406" height="28.7881" filterUnits="userSpaceOnUse" color-interpolation-filters="sRGB">
<feFlood flood-opacity="0" result="BackgroundImageFix"/>
<feColorMatrix in="SourceAlpha" type="matrix" values="0 0 0 0 0 0 0 0 0 0 0 0 0 0 0 0 0 0 127 0" result="hardAlpha"/>
<feOffset dy="4"/>
<feGaussianBlur stdDeviation="2"/>
<feComposite in2="hardAlpha" operator="out"/>
<feColorMatrix type="matrix" values="0 0 0 0 0 0 0 0 0 0 0 0 0 0 0 0 0 0 0.25 0"/>
<feBlend mode="normal" in2="BackgroundImageFix" result="effect1_dropShadow_87_7768"/>
<feBlend mode="normal" in="SourceGraphic" in2="effect1_dropShadow_87_7768" result="shape"/>
</filter>
</defs>
</svg>
