<svg width="111" height="30" viewBox="0 0 111 30" fill="none" xmlns="http://www.w3.org/2000/svg">
<path d="M56.7152 16.1982V7.57994H63.2692V9.61839H59.1665V10.8182H62.8821V12.7019H59.1665V16.1982H56.7152Z" fill="#9F9F9F"/>
<path d="M64.4007 16.1982V7.57994H66.852V16.1982H64.4007Z" fill="#9F9F9F"/>
<path d="M75.6477 10.3667C75.6477 11.0634 75.4843 11.6224 75.1574 12.0439C74.8306 12.4567 74.3618 12.7621 73.7512 12.9599L76.0863 16.1982H73.2222L71.2225 13.1534H70.7451V16.1982H68.2938V7.57994H72.2417C73.3426 7.57994 74.1855 7.81647 74.7704 8.28953C75.3553 8.76259 75.6477 9.45497 75.6477 10.3667ZM73.1706 10.3796C73.1706 10.0871 73.0717 9.86782 72.8739 9.7216C72.6846 9.56678 72.3449 9.48937 71.8546 9.48937H70.7451V11.2698H71.8546C72.3449 11.2698 72.6846 11.1967 72.8739 11.0505C73.0717 10.8956 73.1706 10.672 73.1706 10.3796Z" fill="#9F9F9F"/>
<path d="M76.7101 16.1982V7.57994H83.264V9.61839H79.1614V10.8182H82.877V12.7019H79.1614V14.1597H83.264V16.1982H76.7101Z" fill="#9F9F9F"/>
<path d="M92.4006 15.6047C92.0651 15.8541 91.6867 16.0391 91.2652 16.1595C90.8524 16.2713 90.3664 16.3272 89.8074 16.3272C89.3601 16.3272 88.9602 16.267 88.6075 16.1466C88.2549 16.0176 87.9581 15.8455 87.7173 15.6305C87.4765 15.4155 87.2915 15.1661 87.1625 14.8822C87.0421 14.5898 86.9819 14.2801 86.9819 13.9533C86.9819 13.3684 87.1195 12.8739 87.3948 12.4696C87.67 12.0654 88.0828 11.7643 88.6333 11.5665L88.7881 11.5149C88.5129 11.1795 88.328 10.8612 88.2334 10.5602C88.1388 10.2506 88.0914 9.97103 88.0914 9.7216C88.0914 9.42917 88.1474 9.14533 88.2592 8.8701C88.371 8.59487 88.5387 8.35404 88.7623 8.14761C88.9946 7.93259 89.2741 7.76487 89.6009 7.64445C89.9364 7.51544 90.3234 7.45093 90.7621 7.45093C91.2007 7.45093 91.5835 7.51544 91.9103 7.64445C92.2457 7.76487 92.5253 7.93259 92.7489 8.14761C92.9811 8.35404 93.1532 8.59487 93.265 8.8701C93.3768 9.14533 93.4327 9.42917 93.4327 9.7216C93.4327 10.1172 93.308 10.5086 93.0585 10.8956C92.8091 11.2741 92.3662 11.6095 91.7297 11.902L91.6523 11.9407L92.4393 12.7922L92.9553 12.0181H95.1357L93.6778 14.1597L95.5485 16.1982H92.9295L92.4006 15.6047ZM90.2847 14.5468C90.6116 14.5468 90.9212 14.4522 91.2136 14.2629L89.9106 12.7922L89.8203 12.8309C89.674 12.8997 89.5536 13.0115 89.459 13.1663C89.373 13.3211 89.33 13.4975 89.33 13.6953C89.33 13.9275 89.4117 14.1296 89.5751 14.3017C89.7471 14.4651 89.9837 14.5468 90.2847 14.5468ZM90.2073 9.81191C90.2073 10.1301 90.3578 10.4699 90.6589 10.8311L90.7621 10.7924C90.9427 10.7236 91.0803 10.5946 91.1749 10.4054C91.2695 10.2162 91.3168 10.0183 91.3168 9.81191C91.3168 9.63989 91.2609 9.50227 91.1491 9.39906C91.0373 9.28725 90.9083 9.23134 90.7621 9.23134C90.6158 9.23134 90.4868 9.28725 90.375 9.39906C90.2632 9.50227 90.2073 9.63989 90.2073 9.81191Z" fill="#9F9F9F"/>
<path d="M59.6309 29.2287C59.0116 29.2287 58.4354 29.147 57.9021 28.9836C57.3775 28.8116 56.8528 28.5321 56.3281 28.145L57.1409 26.313C57.6312 26.614 58.0913 26.8463 58.5214 27.0097C58.96 27.1645 59.3299 27.2419 59.6309 27.2419C60.018 27.2419 60.3104 27.1774 60.5082 27.0484C60.7147 26.9194 60.8179 26.743 60.8179 26.5194C60.8179 26.3474 60.7491 26.2012 60.6114 26.0808C60.4738 25.9518 60.276 25.8657 60.018 25.8227L59.0504 25.6421C58.173 25.4787 57.5409 25.2121 57.1538 24.8422C56.7754 24.4638 56.5862 23.9692 56.5862 23.3585C56.5862 22.9457 56.6507 22.5586 56.7797 22.1974C56.9087 21.8362 57.1108 21.5179 57.3861 21.2427C57.6613 20.9675 58.0096 20.7524 58.4311 20.5976C58.8611 20.4342 59.3772 20.3525 59.9793 20.3525C60.4523 20.3525 60.9426 20.4127 61.45 20.5331C61.9661 20.6535 62.4951 20.8943 63.0369 21.2556L62.2241 23.0876C61.7855 22.864 61.3769 22.6834 60.9985 22.5457C60.62 22.4081 60.3018 22.3393 60.0438 22.3393C59.6911 22.3393 59.4374 22.3952 59.2826 22.507C59.1364 22.6102 59.0633 22.7608 59.0633 22.9586C59.0633 23.1306 59.1321 23.2639 59.2697 23.3585C59.4073 23.4446 59.6051 23.5091 59.8632 23.5521L60.8308 23.7327C61.2694 23.8101 61.6436 23.9305 61.9532 24.0939C62.2628 24.2487 62.5166 24.4337 62.7144 24.6487C62.9122 24.8637 63.0584 25.1046 63.153 25.3712C63.2477 25.6378 63.295 25.9216 63.295 26.2227C63.295 27.1602 62.9853 27.8956 62.3661 28.4289C61.7468 28.9621 60.8351 29.2287 59.6309 29.2287Z" fill="#9F9F9F"/>
<path d="M69.8782 29.0997L69.4782 27.8483H66.4593L66.0593 29.0997H63.4016L66.6141 20.4815H69.3234L72.5359 29.0997H69.8782ZM67.9688 23.0231L67.0785 25.8614H68.859L67.9688 23.0231Z" fill="#9F9F9F"/>
<path d="M73.2831 29.0997V20.4815H79.8371V22.5199H75.7344V23.7198H79.45V25.6034H75.7344V29.0997H73.2831Z" fill="#9F9F9F"/>
<path d="M80.9686 29.0997V20.4815H87.5226V22.5199H83.4199V23.7198H87.1355V25.6034H83.4199V27.0613H87.5226V29.0997H80.9686Z" fill="#9F9F9F"/>
<path d="M90.8569 29.0997V22.5973H88.483V20.4815H95.6821V22.5973H93.3082V29.0997H90.8569Z" fill="#9F9F9F"/>
<path d="M99.3341 29.0997V25.913L96.1217 20.4815H98.9858L100.56 23.5908L102.134 20.4815H104.998L101.785 25.913V29.0997H99.3341Z" fill="#9F9F9F"/>
<path fill-rule="evenodd" clip-rule="evenodd" d="M107.599 28.6183C108.331 28.6183 108.925 28.0248 108.925 27.2928C108.925 26.5608 108.331 25.9673 107.599 25.9673C106.867 25.9673 106.274 26.5608 106.274 27.2928C106.274 28.0248 106.867 28.6183 107.599 28.6183ZM107.599 29.099C108.597 29.099 109.405 28.2903 109.405 27.2928C109.405 26.2952 108.597 25.4866 107.599 25.4866C106.602 25.4866 105.793 26.2952 105.793 27.2928C105.793 28.2903 106.602 29.099 107.599 29.099Z" fill="#9F9F9F"/>
<path d="M107.305 27.5433V24.075H108.795C109.224 24.075 109.551 24.1649 109.776 24.3449C110.005 24.5249 110.119 24.7949 110.119 25.1549C110.119 25.4422 110.048 25.6689 109.906 25.8351C109.764 25.9978 109.56 26.1103 109.293 26.1726L110.295 27.5433H109.407L108.504 26.2297H108.063V27.5433H107.305ZM108.063 25.6326H108.67C108.909 25.6326 109.082 25.5962 109.189 25.5236C109.3 25.4474 109.356 25.3262 109.356 25.1601C109.356 24.9905 109.302 24.8693 109.195 24.7967C109.087 24.7205 108.913 24.6824 108.67 24.6824H108.063V25.6326Z" fill="#9F9F9F"/>
<path d="M28.046 26.8616C27.4236 28.0647 26.4097 28.9039 25.0244 29.3555H28.046V26.8616Z" fill="#9F9F9F"/>
<path d="M27.574 23.0559V21.3372H24.5959C22.3808 21.3372 21.5811 22.1426 21.5811 23.3491C21.5811 24.522 22.5247 25.3611 24.1609 25.3611C25.6834 25.3611 27.0285 24.6298 27.574 23.0559Z" fill="#9F9F9F"/>
<path d="M14.8921 23.6403C14.8921 19.9803 17.5456 17.7122 23.6489 17.7122H27.5739C27.4635 15.7002 26.1217 14.5645 23.3946 14.5645C22.3104 14.5645 21.1527 14.7835 20.1087 15.1677C18.8606 15.6294 17.4652 15.0936 16.8763 13.8938C16.1971 12.5154 16.8395 10.827 18.275 10.3046C20.1656 9.61709 22.3472 9.25649 24.4118 9.25649C24.9505 9.25649 25.4692 9.28008 25.9677 9.32052L20.7746 1.90282C19.9046 0.662602 18.0809 0.662602 17.2109 1.90282L0.403376 25.8949C-0.617191 27.3508 0.416761 29.3561 2.18351 29.3561H19.3458C16.4581 28.4933 14.8921 26.2993 14.8921 23.6403Z" fill="#9F9F9F"/>
<path d="M32.7137 16.3109C34.7409 16.3109 36.3844 14.6556 36.3844 12.6138C36.3844 10.572 34.7409 8.91675 32.7137 8.91675C30.6864 8.91675 29.043 10.572 29.043 12.6138C29.043 14.6556 30.6864 16.3109 32.7137 16.3109Z" fill="#9F9F9F"/>
<path d="M35.5107 29.3554H29.916V20.4852C29.916 18.9282 31.1675 17.6677 32.7134 17.6677C34.2593 17.6677 35.5107 18.9282 35.5107 20.4852V29.3554Z" fill="#9F9F9F"/>
<mask id="mask0_87_7787" style="mask-type:luminance" maskUnits="userSpaceOnUse" x="38" y="5" width="11" height="25">
<path d="M39.872 13.1842L46.0963 9.61982L45.9371 28.0712H39.8839L39.872 13.1842ZM48.1038 6.21236L38.8991 11.9037L38.7051 12.0237V12.2475V28.9533V29.3606H39.1191H48.3238H48.7381V28.9533V6.55618V5.82031L48.1038 6.21236Z" fill="white"/>
</mask>
<g mask="url(#mask0_87_7787)">
<path d="M48.7371 24.3446V10.8373C48.7371 8.06676 46.4911 5.8208 43.7206 5.8208C40.9501 5.8208 38.7041 8.06676 38.7041 10.8373V24.3446C38.7041 27.1151 40.9501 29.3611 43.7206 29.3611C46.4911 29.3611 48.7371 27.1151 48.7371 24.3446Z" fill="#9F9F9F"/>
</g>
</svg>
