<svg width="64" height="26" viewBox="0 0 64 26" fill="none" xmlns="http://www.w3.org/2000/svg">
<path d="M19.3895 25.879L20.2074 22.8896C20.4204 22.1486 20.5567 21.5865 20.6504 21.0159H20.6675C20.7442 21.595 20.8635 22.1571 21.0424 22.8896L21.7666 25.879H22.5419L24.1692 20.1386H23.4109L22.6527 23.0344C22.4737 23.7498 22.3119 24.3886 22.1926 25.0188H22.1755C22.0903 24.4141 21.937 23.7327 21.7751 23.0514L21.0765 20.1386H20.3011L19.5343 23.0344C19.3384 23.7753 19.1594 24.4567 19.0657 25.0273H19.0487C18.9464 24.4737 18.7931 23.7583 18.6227 23.0429L17.9411 20.1386H17.1572L18.6142 25.879H19.3895ZM29.1254 22.5744H26.9016V20.7603H29.2617V20.1386H26.1519V25.879H29.3895V25.2573H26.9016V23.1877H29.1254V22.5744ZM31.6235 25.879H34.827V25.2573H32.3732V20.1386H31.6235V25.879ZM36.9201 25.879H40.1236V25.2573H37.6699V20.1386H36.9201V25.879ZM42.9239 25.879V23.4261C42.9239 22.4722 42.9154 21.7824 42.8728 21.0584L42.8983 21.0499C43.1795 21.6717 43.5629 22.3275 43.9633 22.9662L45.7866 25.879H46.5364V20.1386H45.8378V22.5404C45.8378 23.4347 45.8548 24.133 45.923 24.8996L45.8974 24.9081C45.6333 24.3204 45.2925 23.7157 44.875 23.0429L43.0432 20.1386H42.2252V25.879H42.9239ZM52.0764 22.5744H49.8527V20.7603H52.2127V20.1386H49.1029V25.879H52.3405V25.2573H49.8527V23.1877H52.0764V22.5744ZM54.2931 25.598C54.5998 25.8024 55.2047 25.9727 55.7585 25.9727C57.1132 25.9727 57.7607 25.1977 57.7607 24.3119C57.7607 23.4687 57.2751 23.0003 56.3038 22.6255C55.5114 22.3189 55.1621 22.0549 55.1621 21.5183C55.1621 21.1266 55.4603 20.6581 56.2441 20.6581C56.7639 20.6581 57.1473 20.82 57.3262 20.9307L57.5307 20.326C57.2836 20.1812 56.8491 20.0449 56.2697 20.0449C55.1536 20.0449 54.4123 20.7092 54.4123 21.6035C54.4123 22.4041 54.9917 22.8981 55.9289 23.2388C56.7042 23.5283 57.011 23.8435 57.011 24.3715C57.011 24.9507 56.5679 25.351 55.8096 25.351C55.2984 25.351 54.8213 25.1891 54.489 24.9762L54.2931 25.598ZM59.7729 25.598C60.0796 25.8024 60.6845 25.9727 61.2383 25.9727C62.593 25.9727 63.2405 25.1977 63.2405 24.3119C63.2405 23.4687 62.7549 23.0003 61.7836 22.6255C60.9912 22.3189 60.6419 22.0549 60.6419 21.5183C60.6419 21.1266 60.9401 20.6581 61.724 20.6581C62.2437 20.6581 62.6271 20.82 62.806 20.9307L63.0105 20.326C62.7634 20.1812 62.3289 20.0449 61.7495 20.0449C60.6334 20.0449 59.8922 20.7092 59.8922 21.6035C59.8922 22.4041 60.4715 22.8981 61.4087 23.2388C62.1841 23.5283 62.4908 23.8435 62.4908 24.3715C62.4908 24.9507 62.0477 25.351 61.2894 25.351C60.7782 25.351 60.3011 25.1891 59.9688 24.9762L59.7729 25.598Z" fill="#9F9F9F"/>
<path d="M20.8769 13.1277H25.839V16.0507H17.0889V0.505615H20.8769V13.1277Z" fill="#9F9F9F"/>
<path fill-rule="evenodd" clip-rule="evenodd" d="M42.1268 4.24761C42.6585 4.51334 43.0646 4.90455 43.3452 5.42124H47.532C47.1184 3.82687 46.2693 2.57943 44.9845 1.67891C43.7144 0.778386 42.149 0.328125 40.2882 0.328125C38.7523 0.328125 37.3863 0.667666 36.1901 1.34675C34.9938 2.01107 34.0561 2.9485 33.3767 4.15903C32.7122 5.35481 32.3799 6.72035 32.3799 8.25567C32.3799 9.79099 32.7122 11.1565 33.3767 12.3523C34.0561 13.5481 34.9938 14.4855 36.1901 15.1646C37.401 15.8289 38.7745 16.1611 40.3104 16.1611C41.6099 16.1611 42.7766 15.9101 43.8104 15.4082C44.8442 14.9062 45.6933 14.2493 46.3579 13.4374C47.0372 12.6254 47.5172 11.747 47.7978 10.8022V7.28134H39.5572V10.0715H44.3642C44.0688 10.9572 43.5963 11.6363 42.9465 12.1087C42.3114 12.5811 41.5287 12.8173 40.5983 12.8173C39.2397 12.8173 38.169 12.4187 37.3863 11.6216C36.6183 10.8096 36.2344 9.68765 36.2344 8.25567C36.2344 6.91227 36.6036 5.84198 37.342 5.04479C38.0804 4.23285 39.0624 3.82687 40.2882 3.82687C40.9971 3.82687 41.6099 3.96712 42.1268 4.24761ZM59.4515 16.0504H63.2395V0.505277H59.4515V10.1379L53.116 0.505277H49.328V16.0504H53.116V6.46201L59.4515 16.0504Z" fill="#9F9F9F"/>
<path d="M27.123 6.47947V16.0569H30.9111V5.26221L27.123 6.47947Z" fill="#9F9F9F"/>
<path d="M30.8448 1.61362L27.0566 2.83088V0.505615H30.8448V1.61362Z" fill="#9F9F9F"/>
<path d="M6.64941 13.3044H10.6993L11.6297 16.0503H15.6392L13.8123 11.0027L6.64941 13.3044Z" fill="#9F9F9F"/>
<path d="M0.249467 15.3614L4.68132 13.9373L3.96523 16.0506H0L0.249467 15.3614Z" fill="#9F9F9F"/>
<path d="M5.62744 0.505615L1.74219 11.2396L6.07184 9.8483L7.79835 4.69082L9.20404 8.8418L12.6321 7.74019L10.0136 0.505615H5.62744Z" fill="#9F9F9F"/>
<path d="M0 23.0392L15.6201 22.4714V23.607L0 23.0392Z" fill="#9F9F9F"/>
</svg>
