<svg width="154" height="154" viewBox="0 0 154 154" fill="none" xmlns="http://www.w3.org/2000/svg">
<path d="M66.8919 7.32725C66.9841 7.88988 67.1657 8.33641 67.4396 8.66386C67.9576 9.27709 68.7851 9.52417 69.9163 9.40212C70.4224 9.34854 70.8779 9.22649 71.2797 9.03597C72.0567 8.66982 72.405 8.12505 72.3276 7.3987C72.271 6.85393 72.0597 6.4848 71.6935 6.29131C71.3244 6.10079 70.7647 5.96088 70.0146 5.87157L68.6303 5.71082C67.7254 5.60663 67.0764 5.45184 66.6865 5.25239C66.0077 4.90409 65.6237 4.31468 65.5374 3.48413C65.4421 2.5881 65.6743 1.8171 66.234 1.17707C66.7936 0.537049 67.642 0.156012 68.7762 0.0339609C69.8211 -0.0761827 70.738 0.0815906 71.5238 0.507281C72.3097 0.932971 72.7592 1.70398 72.8783 2.81137L71.6072 2.94532C71.4822 2.41842 71.2946 2.0225 71.0416 1.76351C70.5742 1.28722 69.8479 1.09967 68.8596 1.20684C68.0618 1.29317 67.5081 1.51941 67.1955 1.89152C66.8829 2.26362 66.749 2.67145 66.7966 3.11501C66.8502 3.60321 67.0913 3.93959 67.5229 4.12416C67.8057 4.24026 68.4279 4.35635 69.3954 4.47543L70.8302 4.64511C71.5209 4.72846 72.0656 4.88326 72.4586 5.1095C73.1432 5.5084 73.5302 6.1514 73.6255 7.0385C73.7446 8.14291 73.4261 8.97643 72.6729 9.53906C71.9198 10.0987 71.0118 10.4381 69.9461 10.5512C68.7048 10.6822 67.7016 10.4708 66.9306 9.91116C66.1625 9.35747 65.7279 8.53883 65.6237 7.46121L66.8919 7.32725Z" fill="#EBEBEB"/>
<path d="M92.9917 2.16186C93.5722 2.93882 93.8312 3.75448 93.7657 4.60586L92.4588 4.38557C92.4172 3.72173 92.2088 3.16804 91.8277 2.72151C91.4467 2.27498 90.8573 1.98325 90.0595 1.84929C89.0861 1.68557 88.2406 1.89692 87.5262 2.48039C86.8117 3.06385 86.3354 4.06407 86.0973 5.47808C85.9038 6.63608 86.0139 7.62141 86.4337 8.43409C86.8534 9.24678 87.6006 9.74093 88.6752 9.92252C89.6636 10.0892 90.4792 9.83619 91.1222 9.16342C91.4646 8.80918 91.7563 8.318 92.0004 7.68988L93.3072 7.91017C93.0155 8.93123 92.4826 9.74093 91.7087 10.3363C90.7799 11.0537 89.6487 11.2978 88.315 11.0746C87.166 10.8811 86.258 10.372 85.5942 9.54446C84.719 8.45196 84.4451 6.94269 84.7696 5.01964C85.0137 3.56098 85.6031 2.4268 86.5319 1.62305C87.5381 0.747857 88.7765 0.435287 90.244 0.682366C91.4943 0.893723 92.4112 1.38788 92.9917 2.16186Z" fill="#EBEBEB"/>
<path d="M107.054 5.78174L111.24 7.79707C111.93 8.13048 112.448 8.50258 112.8 8.91934C113.464 9.71416 113.544 10.631 113.044 11.67C112.782 12.2117 112.457 12.6017 112.067 12.8369C111.677 13.0721 111.231 13.2001 110.728 13.2149C111.011 13.5275 111.186 13.846 111.252 14.1646C111.317 14.4831 111.234 14.9118 111.002 15.4476L110.46 16.68C110.305 17.0313 110.213 17.3022 110.174 17.4897C110.109 17.8112 110.15 18.0613 110.302 18.2339L110.204 18.4363L108.704 17.713C108.701 17.6147 108.715 17.4986 108.751 17.3647C108.787 17.2307 108.879 16.9807 109.034 16.6205L109.686 15.0755C109.942 14.4712 109.912 13.9681 109.6 13.5692C109.418 13.3459 109.079 13.1137 108.579 12.8726L105.789 11.53L103.923 15.4089L102.699 14.8195L107.054 5.78174ZM109.114 11.8754C109.689 12.1522 110.198 12.2564 110.644 12.1879C111.091 12.1195 111.457 11.7861 111.746 11.1877C112.055 10.5447 112.035 9.99101 111.677 9.53257C111.487 9.28847 111.18 9.06521 110.764 8.86576L107.772 7.42496L106.283 10.5149L109.114 11.8754Z" fill="#EBEBEB"/>
<path d="M130.648 23.3675C130.547 24.4719 130.032 25.5376 129.103 26.5647C128.1 27.675 126.981 28.3448 125.751 28.574C124.307 28.8419 122.971 28.4192 121.744 27.3118C120.598 26.2759 120.042 25.0852 120.068 23.7366C120.143 22.4774 120.685 21.2926 121.691 20.1763C122.602 19.1701 123.629 18.5331 124.778 18.2682C126.251 17.9288 127.615 18.3277 128.871 19.4619C130.19 20.6496 130.782 21.9535 130.648 23.3675ZM125.474 27.3059C126.448 27.029 127.308 26.4753 128.055 25.6478C128.847 24.7726 129.255 23.8617 129.279 22.9121C129.303 21.9654 128.918 21.1319 128.124 20.4145C127.353 19.7179 126.486 19.4142 125.522 19.5036C124.557 19.5929 123.611 20.1525 122.679 21.1825C121.935 22.0071 121.515 22.8912 121.42 23.8349C121.325 24.7785 121.747 25.6716 122.682 26.517C123.572 27.3238 124.504 27.5857 125.474 27.3059Z" fill="#EBEBEB"/>
<path d="M140.56 33.106L141.292 34.252L133.838 39.0061L136.571 43.2898L135.562 43.9328L132.097 38.5L140.56 33.106Z" fill="#EBEBEB"/>
<path d="M149.35 49.9604L149.776 51.2524L141.384 54.0298L142.98 58.8553L141.846 59.2304L139.821 53.1159L149.35 49.9604Z" fill="#EBEBEB"/>
<path d="M154 82.7603L153.488 86.7939C153.315 88.1633 152.693 89.1635 151.628 89.7946C150.666 90.3572 149.499 90.5507 148.13 90.3751C147.073 90.2411 146.141 89.9196 145.337 89.4135C143.918 88.5205 143.316 87.2226 143.533 85.5139L144.046 81.4951L154 82.7603ZM144.718 85.4037C144.662 85.8592 144.659 86.2402 144.718 86.5468C144.828 87.0946 145.111 87.5649 145.573 87.9638C145.942 88.2823 146.43 88.5383 147.043 88.7348C147.409 88.8509 147.752 88.9283 148.073 88.97C149.306 89.1278 150.297 89.0027 151.041 88.6009C151.785 88.199 152.226 87.4518 152.366 86.3623L152.669 83.9689L145.025 82.9984L144.718 85.4037Z" fill="#EBEBEB"/>
<path d="M144.761 110.816C143.68 111.066 142.507 110.914 141.239 110.358C139.867 109.753 138.881 108.905 138.277 107.809C137.568 106.523 137.548 105.124 138.214 103.609C138.837 102.195 139.792 101.29 141.081 100.891C142.299 100.567 143.597 100.707 144.972 101.311C146.213 101.859 147.142 102.633 147.755 103.639C148.541 104.931 148.592 106.351 147.91 107.902C147.193 109.524 146.145 110.495 144.761 110.816ZM139.39 107.146C139.962 107.982 140.757 108.622 141.778 109.072C142.858 109.545 143.85 109.646 144.758 109.372C145.666 109.098 146.332 108.47 146.764 107.491C147.181 106.541 147.196 105.621 146.809 104.734C146.422 103.847 145.591 103.124 144.32 102.564C143.302 102.118 142.331 101.996 141.406 102.204C140.48 102.412 139.765 103.094 139.256 104.249C138.777 105.345 138.822 106.312 139.39 107.146Z" fill="#EBEBEB"/>
<path d="M138.109 124.125L130.736 120.145L135.359 127.245L134.382 128.352L126.759 124.652L131.629 131.472L130.643 132.588L124.862 123.973L125.806 122.902L133.579 126.67L128.878 119.419L129.822 118.347L139.083 123.018L138.109 124.125Z" fill="#EBEBEB"/>
<path d="M120.482 140.628L119.109 141.462L110.554 137.148L114.778 144.093L113.673 144.763L108.458 136.19L109.759 135.398L118.374 139.664L114.153 132.725L115.263 132.049L120.482 140.628Z" fill="#EBEBEB"/>
<path d="M79.8444 153.933L79.7402 152.742L83.11 152.448L82.3361 143.642L83.7114 143.52L84.4853 152.326L87.8551 152.031L87.9593 153.222L79.8444 153.933Z" fill="#EBEBEB"/>
<path d="M59.5518 150.488C59.0576 149.493 58.9355 148.318 59.1856 146.954C59.4565 145.481 60.0548 144.323 60.9836 143.486C62.0731 142.501 63.4306 142.158 65.056 142.456C66.5741 142.736 67.6756 143.456 68.3603 144.62C68.9586 145.731 69.1194 147.026 68.8485 148.502C68.6044 149.836 68.0626 150.919 67.2231 151.747C66.1485 152.81 64.7791 153.188 63.1121 152.881C61.3706 152.557 60.1828 151.762 59.5518 150.488ZM61.8856 144.418C61.2039 145.165 60.7633 146.088 60.5609 147.186C60.3466 148.347 60.4805 149.336 60.9568 150.154C61.4331 150.973 62.1982 151.479 63.252 151.672C64.273 151.86 65.1721 151.664 65.946 151.08C66.72 150.497 67.232 149.523 67.4821 148.157C67.6815 147.064 67.5744 146.091 67.1606 145.239C66.7438 144.388 65.9163 143.846 64.6749 143.62C63.4961 143.406 62.5673 143.671 61.8856 144.418Z" fill="#EBEBEB"/>
<path d="M36.5231 134.227C36.8446 133.757 37.0202 133.308 37.047 132.882C37.0946 132.081 36.666 131.331 35.764 130.637C35.3591 130.328 34.9454 130.101 34.5256 129.962C33.71 129.691 33.0818 129.845 32.6383 130.423C32.3049 130.858 32.2037 131.268 32.3317 131.661C32.4686 132.051 32.7752 132.539 33.2605 133.123L34.1505 134.195C34.734 134.894 35.0972 135.454 35.243 135.868C35.4931 136.588 35.3651 137.279 34.856 137.939C34.3083 138.654 33.6087 139.053 32.7603 139.13C31.9149 139.208 31.0367 138.901 30.1288 138.204C29.2953 137.564 28.7416 136.817 28.4677 135.966C28.1938 135.114 28.3963 134.248 29.075 133.361L30.0871 134.138C29.8133 134.605 29.6793 135.022 29.6793 135.385C29.6882 136.052 30.0871 136.689 30.876 137.294C31.513 137.782 32.0727 137.999 32.5549 137.945C33.0402 137.892 33.4152 137.686 33.6891 137.335C33.9898 136.945 34.0463 136.534 33.8588 136.106C33.7338 135.826 33.3646 135.311 32.7455 134.561L31.8256 133.447C31.3821 132.912 31.0963 132.423 30.9653 131.986C30.745 131.227 30.9087 130.491 31.4505 129.783C32.1263 128.902 32.933 128.518 33.8648 128.631C34.7965 128.744 35.6896 129.128 36.538 129.78C37.5293 130.539 38.1068 131.387 38.2794 132.322C38.4521 133.254 38.205 134.147 37.5352 134.998L36.5231 134.227Z" fill="#EBEBEB"/>
<path d="M17.7584 126.055L13.3438 120.22L14.3231 119.479L17.937 124.257L20.3661 122.417L17.0231 117.999L17.9489 117.3L21.2919 121.717L24.0039 119.663L20.3274 114.805L21.28 114.085L25.7572 120L17.7584 126.055Z" fill="#EBEBEB"/>
<path d="M6.7879 108.489L4.08789 101.69L5.231 101.238L7.44281 106.807L10.2738 105.682L8.22869 100.532L9.30929 100.103L11.3544 105.253L14.5158 103.997L12.2683 98.3322L13.3787 97.8916L16.1174 104.786L6.7879 108.489Z" fill="#EBEBEB"/>
<path d="M0 73.982L0.190519 72.0441L8.91866 70.0079L0.756121 66.3255L0.94664 64.4084L10.934 65.3938L10.806 66.6798L4.91181 66.0963C4.70641 66.0755 4.37002 66.0398 3.89968 65.9832C3.42934 65.9266 2.92327 65.8731 2.38446 65.8195L10.5262 69.4989L10.3922 70.8385L1.6849 72.8746L1.99152 72.9044C2.23562 72.9282 2.6107 72.961 3.11081 72.9967C3.6139 73.0354 3.98005 73.0651 4.2182 73.089L10.1124 73.6724L9.98437 74.9644L0 73.982Z" fill="#EBEBEB"/>
<path d="M8.89829 44.0401C9.97591 43.7692 11.1518 43.9032 12.4288 44.439C13.8101 45.0195 14.8103 45.853 15.4325 46.9366C16.1618 48.2107 16.2065 49.6098 15.5664 51.134C14.9681 52.5569 14.0274 53.4797 12.7474 53.8995C11.5358 54.2448 10.2349 54.1287 8.85066 53.5452C7.5974 53.0213 6.6597 52.2592 6.0286 51.2649C5.22187 49.9879 5.14448 48.5679 5.80236 47.0051C6.48704 45.3737 7.52001 44.3854 8.89829 44.0401ZM14.3281 47.6183C13.7446 46.7937 12.9379 46.1626 11.9079 45.731C10.8213 45.2755 9.82409 45.1922 8.92211 45.4809C8.02012 45.7697 7.36223 46.4097 6.94845 47.398C6.54658 48.3565 6.54658 49.2734 6.95143 50.1546C7.35628 51.0357 8.19575 51.7442 9.47878 52.283C10.5028 52.7117 11.4762 52.8159 12.3961 52.5926C13.3159 52.3693 14.0215 51.6757 14.5097 50.5118C14.9711 49.4104 14.9115 48.4459 14.3281 47.6183Z" fill="#EBEBEB"/>
<path d="M14.9619 31.1994L17.8971 27.5974C18.3793 27.005 18.8646 26.5853 19.3528 26.3412C20.2816 25.8798 21.1895 26.0137 22.0825 26.7431C22.5469 27.1241 22.8506 27.529 22.9905 27.9636C23.1304 28.3982 23.1483 28.8596 23.047 29.3538C23.4192 29.1513 23.7674 29.0531 24.0919 29.065C24.4194 29.0739 24.8153 29.2555 25.2797 29.6068L26.3543 30.4195C26.661 30.6517 26.8991 30.8065 27.0777 30.8839C27.3754 31.0208 27.6284 31.0387 27.8309 30.9345L28.0065 31.0774L26.9527 32.3693C26.8574 32.3515 26.7473 32.3068 26.6252 32.2413C26.5032 32.1758 26.2829 32.027 25.9673 31.7948L24.6188 30.8005C24.0889 30.4106 23.5948 30.3212 23.1334 30.5356C22.8744 30.6606 22.5678 30.9375 22.2195 31.3661L20.2637 33.7655L23.6007 36.4833L22.7434 37.5371L14.9619 31.1994ZM21.3711 30.616C21.773 30.1218 21.9932 29.6515 22.029 29.202C22.0647 28.7524 21.8265 28.3178 21.3115 27.8981C20.7578 27.4456 20.2161 27.3384 19.6862 27.5796C19.4034 27.7076 19.1176 27.9517 18.8229 28.3119L16.7272 30.8869L19.3855 33.054L21.3711 30.616Z" fill="#EBEBEB"/>
<path d="M29.9785 15.8465L35.962 11.6343L36.6705 12.6405L31.7706 16.0906L33.524 18.5823L38.0547 15.394L38.7245 16.3437L34.1908 19.5289L36.1495 22.3093L41.1328 18.7996L41.8204 19.776L35.7536 24.0478L29.9785 15.8465Z" fill="#EBEBEB"/>
</svg>
