<svg width="110" height="19" viewBox="0 0 110 19" fill="none" xmlns="http://www.w3.org/2000/svg">
<path d="M58.6434 14.2187H59.5065C57.6365 17.6711 55.6706 18.5581 52.9375 18.4862C48.4063 18.3424 48.3344 12.6125 50.564 9.06422C52.3861 6.23522 55.5028 5.63585 56.8693 6.78663C58.092 7.76959 58.116 9.59166 57.3968 11.0062C56.3179 12.996 54.3041 13.7393 52.2422 13.6673C52.2662 14.8181 52.6978 16.1607 53.7287 16.6641C55.5747 17.5272 57.5166 16.0888 58.6434 14.2187ZM52.3381 12.2768C52.3381 12.3727 52.3142 12.4686 52.3142 12.5405C56.1021 12.6604 56.5337 8.10523 55.9343 7.62574C55.4548 7.26612 54.4 7.72164 53.5369 9.08819C53.0334 9.85538 52.6019 10.9342 52.3381 12.2768Z" fill="#9F9F9F"/>
<path d="M48.2496 6.35327H50.2395C48.6811 9.54189 46.4036 14.7923 44.5815 18.3405H41.249L41.273 6.35327H44.5815L44.5335 14.5526L48.2496 6.35327Z" fill="#9F9F9F"/>
<path d="M41.4308 14.0982H42.3658C40.4718 19.2767 33.2315 20.6672 34.5741 13.9543L36.1564 6.35438H39.4649C38.6977 10.4061 38.1463 12.8755 37.5949 15.7045C37.0435 18.5814 40.6157 16.4477 41.4308 14.0982ZM38.2662 5.01181C37.7387 5.01181 37.2832 4.84399 36.9236 4.48437C36.5879 4.12475 36.4201 3.69321 36.4201 3.14179C36.4441 2.61435 36.6119 2.18281 36.9715 1.79922C37.3551 1.4396 37.7867 1.2478 38.3381 1.2478C38.8895 1.2478 39.2971 1.4396 39.6567 1.79922C40.0403 2.18281 40.2321 2.61435 40.2321 3.14179C40.2321 3.69321 40.0163 4.12475 39.6327 4.48437C39.2491 4.84399 38.7936 5.01181 38.2662 5.01181Z" fill="#9F9F9F"/>
<path d="M28.5697 8.96825C30.0801 6.45092 32.1179 5.27616 35.2586 7.14618L33.0289 8.99222C31.087 7.57772 29.3129 9.42376 28.0902 11.4137L26.7476 18.3423H23.3672L25.7886 6.35502H29.0731L28.5697 8.96825Z" fill="#9F9F9F"/>
<path d="M24.9057 14.2419H25.8407C23.8748 19.732 17.3057 19.7081 18.1448 15.1769C18.5524 12.9233 18.8881 10.8615 19.2477 8.96746C19.7272 6.35424 17.3297 7.88861 16.2509 9.90247L14.5966 18.3415H11.2881L14.2849 3.45331C13.278 3.54921 12.1512 3.38139 10.9525 3.11767L7.76387 18.3415H4.50333L7.81182 2.56625C5.39039 2.27856 3.56832 2.44638 2.84908 3.62114C2.34562 4.4123 2.68126 6.30629 3.35255 7.98451L0.0920096 9.47093C-0.267609 5.58705 0.451628 3.11767 1.81818 1.82304C3.80807 -0.0709452 7.1645 0.192774 10.3052 0.888036C13.4938 1.60727 16.5865 2.15869 18.1448 0.360596L16.6584 7.96053C19.1997 5.22743 23.1795 5.41923 22.1965 10.6936C21.8849 12.3479 21.5972 14.2179 21.3335 15.8242C20.7581 18.6772 24.1385 16.5434 24.9057 14.2419Z" fill="#9F9F9F"/>
<path d="M101.447 14.285H102.358C100.56 19.1998 93.7994 20.5184 95.07 14.1172L97.5874 1.53052H100.824C100.009 5.60619 98.4504 13.0623 97.899 15.8194C97.3716 18.5525 100.704 16.5146 101.447 14.285Z" fill="#9F9F9F"/>
<path d="M95.1504 14.285H96.0614C94.2633 19.1998 87.5025 20.5184 88.7731 14.1172L91.2905 1.53052H94.527C93.7119 5.60619 92.1536 13.0623 91.6021 15.8194C91.0747 18.5525 94.4072 16.5146 95.1504 14.285Z" fill="#9F9F9F"/>
<path d="M88.7518 14.1885H89.6149C87.7449 17.6408 85.779 18.5279 83.0459 18.4559C78.5147 18.3121 78.4428 12.5822 80.6724 9.03394C82.4945 6.20495 85.6112 5.60558 86.9777 6.75636C88.2004 7.73932 88.2244 9.56138 87.5052 10.9759C86.4263 12.9658 84.4124 13.709 82.3506 13.6371C82.3746 14.7878 82.8062 16.1304 83.8371 16.6339C85.6831 17.497 87.625 16.0585 88.7518 14.1885ZM82.4465 12.2465C82.4465 12.3424 82.4226 12.4383 82.4226 12.5103C86.2105 12.6301 86.6421 8.07496 86.0427 7.59547C85.5632 7.23585 84.5083 7.69137 83.6453 9.05792C83.1418 9.8251 82.7103 10.904 82.4465 12.2465Z" fill="#9F9F9F"/>
<path d="M78.3101 4.05127H80.5919L73.6326 18.312H69.8963L69.7537 8.55766L65.1047 18.312H61.2828L61.1973 4.05127H64.9336L65.0191 13.8056L69.7537 4.05127H73.4044L73.6326 13.7771L78.3101 4.05127Z" fill="#9F9F9F"/>
<ellipse cx="106.898" cy="15.9938" rx="2.50673" ry="2.50673" fill="#9F9F9F"/>
</svg>
