<svg width="200" height="200" viewBox="0 0 200 200" fill="none" xmlns="http://www.w3.org/2000/svg">
<g opacity="0.8" filter="url(#filter0_b_228_12740)">
<circle cx="100" cy="100" r="100" fill="url(#paint0_linear_228_12740)" fill-opacity="0.8"/>
</g>
<path d="M50.594 103.6H52.574L56.6 118.208H56.864L60.89 103.6H62.87L58.514 119H54.95L50.594 103.6ZM68.7727 104.832C68.7727 104.407 68.9194 104.047 69.2127 103.754C69.5207 103.446 69.8874 103.292 70.3127 103.292C70.738 103.292 71.0974 103.446 71.3907 103.754C71.6987 104.047 71.8527 104.407 71.8527 104.832C71.8527 105.257 71.6987 105.624 71.3907 105.932C71.0974 106.225 70.738 106.372 70.3127 106.372C69.8874 106.372 69.5207 106.225 69.2127 105.932C68.9194 105.624 68.7727 105.257 68.7727 104.832ZM65.6487 117.416H69.4767V109.672H66.0447V108.088H71.1927V117.416H74.7567V119H65.6487V117.416ZM80.1094 114.072C80.1534 115.157 80.4907 116.03 81.1214 116.69C81.7521 117.35 82.6321 117.68 83.7614 117.68C84.2747 117.68 84.7221 117.621 85.1034 117.504C85.4847 117.387 85.8074 117.225 86.0714 117.02C86.3501 116.815 86.5701 116.58 86.7314 116.316C86.9074 116.037 87.0467 115.744 87.1494 115.436L88.7774 115.876C88.4694 116.888 87.8974 117.717 87.0614 118.362C86.2401 118.993 85.1254 119.308 83.7174 119.308C82.9401 119.308 82.2214 119.176 81.5614 118.912C80.9161 118.633 80.3587 118.245 79.8894 117.746C79.4201 117.247 79.0534 116.653 78.7894 115.964C78.5254 115.275 78.3934 114.512 78.3934 113.676V113.148C78.3934 112.385 78.5254 111.674 78.7894 111.014C79.0681 110.354 79.4494 109.789 79.9334 109.32C80.4174 108.836 80.9821 108.462 81.6274 108.198C82.2874 107.919 82.9987 107.78 83.7614 107.78C84.6561 107.78 85.4261 107.949 86.0714 108.286C86.7314 108.609 87.2667 109.012 87.6774 109.496C88.1027 109.98 88.4107 110.508 88.6014 111.08C88.8067 111.652 88.9094 112.18 88.9094 112.664V114.072H80.1094ZM83.7614 109.408C83.2774 109.408 82.8227 109.489 82.3974 109.65C81.9867 109.797 81.6201 110.009 81.2974 110.288C80.9894 110.567 80.7327 110.897 80.5274 111.278C80.3367 111.645 80.2121 112.048 80.1534 112.488H87.1934C87.1641 112.019 87.0467 111.593 86.8414 111.212C86.6507 110.831 86.3941 110.508 86.0714 110.244C85.7634 109.98 85.4041 109.775 84.9934 109.628C84.5974 109.481 84.1867 109.408 83.7614 109.408ZM101.764 119H98.5961L97.2761 108.88H97.0121L95.6921 119H92.5241L90.8081 108.088H92.5681L94.0201 118.208H94.2841L95.5601 108.088H98.7281L100.004 118.208H100.268L101.72 108.088H103.48L101.764 119ZM53.718 143.664V150H51.87V134.6H57.37C58.162 134.6 58.8513 134.717 59.438 134.952C60.0247 135.172 60.5087 135.473 60.89 135.854C61.286 136.235 61.5793 136.683 61.77 137.196C61.9753 137.695 62.078 138.223 62.078 138.78V139.44C62.078 139.997 61.9753 140.533 61.77 141.046C61.5793 141.559 61.286 142.014 60.89 142.41C60.494 142.791 60.0027 143.099 59.416 143.334C58.8293 143.554 58.1473 143.664 57.37 143.664H53.718ZM53.718 141.948H57.15C59.2033 141.948 60.23 141.068 60.23 139.308V138.912C60.23 138.135 59.9733 137.511 59.46 137.042C58.9613 136.558 58.1913 136.316 57.15 136.316H53.718V141.948ZM64.7687 139.088H68.7287V140.54H68.9927C69.2714 139.939 69.6674 139.499 70.1807 139.22C70.694 138.927 71.2807 138.78 71.9407 138.78C73.0407 138.78 73.928 139.139 74.6027 139.858C75.2774 140.577 75.6367 141.625 75.6807 143.004L73.8767 143.268C73.8767 142.256 73.6347 141.53 73.1507 141.09C72.6667 140.635 72.0727 140.408 71.3687 140.408C70.914 140.408 70.518 140.496 70.1807 140.672C69.858 140.848 69.5867 141.09 69.3667 141.398C69.1467 141.706 68.9854 142.065 68.8827 142.476C68.78 142.887 68.7287 143.327 68.7287 143.796V148.416H71.5007V150H64.5047V148.416H67.0127V140.672H64.7687V139.088ZM89.1514 144.676C89.1514 145.585 88.9974 146.392 88.6894 147.096C88.3961 147.785 88.0001 148.372 87.5014 148.856C87.0027 149.325 86.4161 149.685 85.7414 149.934C85.0814 150.183 84.3921 150.308 83.6734 150.308C82.9401 150.308 82.2434 150.183 81.5834 149.934C80.9234 149.685 80.3441 149.325 79.8454 148.856C79.3467 148.372 78.9434 147.785 78.6354 147.096C78.3421 146.392 78.1954 145.585 78.1954 144.676V144.412C78.1954 143.517 78.3421 142.725 78.6354 142.036C78.9434 141.332 79.3467 140.738 79.8454 140.254C80.3587 139.77 80.9454 139.403 81.6054 139.154C82.2654 138.905 82.9547 138.78 83.6734 138.78C84.3921 138.78 85.0814 138.905 85.7414 139.154C86.4014 139.403 86.9807 139.77 87.4794 140.254C87.9927 140.738 88.3961 141.332 88.6894 142.036C88.9974 142.725 89.1514 143.517 89.1514 144.412V144.676ZM83.6734 148.68C84.2014 148.68 84.6854 148.592 85.1254 148.416C85.5801 148.225 85.9761 147.954 86.3134 147.602C86.6507 147.25 86.9147 146.832 87.1054 146.348C87.2961 145.849 87.3914 145.292 87.3914 144.676V144.412C87.3914 143.825 87.2961 143.29 87.1054 142.806C86.9147 142.307 86.6507 141.882 86.3134 141.53C85.9761 141.178 85.5801 140.907 85.1254 140.716C84.6707 140.511 84.1867 140.408 83.6734 140.408C83.1601 140.408 82.6761 140.511 82.2214 140.716C81.7667 140.907 81.3707 141.178 81.0334 141.53C80.6961 141.882 80.4321 142.307 80.2414 142.806C80.0507 143.29 79.9554 143.825 79.9554 144.412V144.676C79.9554 145.292 80.0507 145.849 80.2414 146.348C80.4321 146.832 80.6961 147.25 81.0334 147.602C81.3707 147.954 81.7594 148.225 82.1994 148.416C82.6541 148.592 83.1454 148.68 83.6734 148.68ZM97.1661 135.832C97.1661 135.407 97.3128 135.047 97.6061 134.754C97.9141 134.446 98.2808 134.292 98.7061 134.292C99.1314 134.292 99.4908 134.446 99.7841 134.754C100.092 135.047 100.246 135.407 100.246 135.832C100.246 136.257 100.092 136.624 99.7841 136.932C99.4908 137.225 99.1314 137.372 98.7061 137.372C98.2808 137.372 97.9141 137.225 97.6061 136.932C97.3128 136.624 97.1661 136.257 97.1661 135.832ZM93.5141 139.088H99.5861V152.684C99.5861 153.183 99.4248 153.593 99.1021 153.916C98.7941 154.239 98.3908 154.4 97.8921 154.4H92.9861V152.816H97.2761C97.6721 152.816 97.8701 152.596 97.8701 152.156V140.672H93.5141V139.088ZM107.051 145.072C107.095 146.157 107.432 147.03 108.063 147.69C108.693 148.35 109.573 148.68 110.703 148.68C111.216 148.68 111.663 148.621 112.045 148.504C112.426 148.387 112.749 148.225 113.013 148.02C113.291 147.815 113.511 147.58 113.673 147.316C113.849 147.037 113.988 146.744 114.091 146.436L115.719 146.876C115.411 147.888 114.839 148.717 114.003 149.362C113.181 149.993 112.067 150.308 110.659 150.308C109.881 150.308 109.163 150.176 108.503 149.912C107.857 149.633 107.3 149.245 106.831 148.746C106.361 148.247 105.995 147.653 105.731 146.964C105.467 146.275 105.335 145.512 105.335 144.676V144.148C105.335 143.385 105.467 142.674 105.731 142.014C106.009 141.354 106.391 140.789 106.875 140.32C107.359 139.836 107.923 139.462 108.569 139.198C109.229 138.919 109.94 138.78 110.703 138.78C111.597 138.78 112.367 138.949 113.013 139.286C113.673 139.609 114.208 140.012 114.619 140.496C115.044 140.98 115.352 141.508 115.543 142.08C115.748 142.652 115.851 143.18 115.851 143.664V145.072H107.051ZM110.703 140.408C110.219 140.408 109.764 140.489 109.339 140.65C108.928 140.797 108.561 141.009 108.239 141.288C107.931 141.567 107.674 141.897 107.469 142.278C107.278 142.645 107.153 143.048 107.095 143.488H114.135C114.105 143.019 113.988 142.593 113.783 142.212C113.592 141.831 113.335 141.508 113.013 141.244C112.705 140.98 112.345 140.775 111.935 140.628C111.539 140.481 111.128 140.408 110.703 140.408ZM129.476 146.128C129.358 146.729 129.153 147.287 128.86 147.8C128.581 148.313 128.222 148.761 127.782 149.142C127.342 149.509 126.828 149.795 126.242 150C125.655 150.205 125.002 150.308 124.284 150.308C123.521 150.308 122.795 150.183 122.106 149.934C121.431 149.685 120.837 149.325 120.324 148.856C119.81 148.372 119.4 147.785 119.092 147.096C118.798 146.407 118.652 145.615 118.652 144.72V144.456C118.652 143.576 118.798 142.784 119.092 142.08C119.4 141.376 119.81 140.782 120.324 140.298C120.837 139.814 121.431 139.44 122.106 139.176C122.795 138.912 123.521 138.78 124.284 138.78C124.973 138.78 125.611 138.883 126.198 139.088C126.784 139.293 127.298 139.587 127.738 139.968C128.192 140.335 128.559 140.775 128.838 141.288C129.131 141.801 129.329 142.359 129.432 142.96L127.716 143.356C127.672 142.975 127.562 142.608 127.386 142.256C127.224 141.889 126.997 141.574 126.704 141.31C126.425 141.031 126.08 140.811 125.67 140.65C125.259 140.489 124.782 140.408 124.24 140.408C123.712 140.408 123.213 140.511 122.744 140.716C122.289 140.907 121.886 141.185 121.534 141.552C121.182 141.904 120.903 142.329 120.698 142.828C120.507 143.327 120.412 143.869 120.412 144.456V144.72C120.412 145.336 120.507 145.893 120.698 146.392C120.903 146.876 121.182 147.287 121.534 147.624C121.886 147.961 122.296 148.225 122.766 148.416C123.235 148.592 123.741 148.68 124.284 148.68C124.826 148.68 125.296 148.599 125.692 148.438C126.102 148.262 126.447 148.042 126.726 147.778C127.019 147.499 127.246 147.184 127.408 146.832C127.584 146.48 127.701 146.113 127.76 145.732L129.476 146.128ZM132.364 139.088H135.796V134.6H137.512V139.088H141.736V140.672H137.512V147.756C137.512 148.196 137.71 148.416 138.106 148.416H141.208V150H137.49C136.992 150 136.581 149.839 136.258 149.516C135.95 149.193 135.796 148.783 135.796 148.284V140.672H132.364V139.088Z" fill="white"/>
<path fill-rule="evenodd" clip-rule="evenodd" d="M146.086 52H126V50H149.5V73H147.5V53.4144L128.707 72.2072L127.293 70.793L146.086 52Z" fill="white"/>
<defs>
<filter id="filter0_b_228_12740" x="-16" y="-16" width="232" height="232" filterUnits="userSpaceOnUse" color-interpolation-filters="sRGB">
<feFlood flood-opacity="0" result="BackgroundImageFix"/>
<feGaussianBlur in="BackgroundImageFix" stdDeviation="8"/>
<feComposite in2="SourceAlpha" operator="in" result="effect1_backgroundBlur_228_12740"/>
<feBlend mode="normal" in="SourceGraphic" in2="effect1_backgroundBlur_228_12740" result="shape"/>
</filter>
<linearGradient id="paint0_linear_228_12740" x1="100" y1="200" x2="100" y2="0" gradientUnits="userSpaceOnUse">
<stop stop-color="#969696"/>
<stop offset="0.49613" stop-color="#636363"/>
<stop offset="1" stop-color="#868686"/>
</linearGradient>
</defs>
</svg>
