<svg width="110" height="22" viewBox="0 0 110 22" fill="none" xmlns="http://www.w3.org/2000/svg">
<path d="M75.127 6.64906V4.82691H78.8901C78.8993 4.89901 78.9163 4.97767 78.9163 5.05632C78.9163 8.4817 78.919 11.9071 78.9163 15.3325C78.9163 16.1007 78.8152 16.8557 78.5984 17.5951C78.107 19.2639 77.0243 20.3703 75.395 20.9654C74.4293 21.318 73.4241 21.4675 72.4059 21.516C71.1445 21.5763 69.8844 21.5186 68.6296 21.3967C67.1252 21.2499 65.6352 21.0139 64.161 20.677C63.9783 20.6351 63.7944 20.601 63.5723 20.5551C63.7182 19.5772 63.8601 18.6215 64.0046 17.6462C64.5276 17.7432 65.0177 17.8455 65.5117 17.9228C66.4551 18.0696 67.3985 18.2099 68.3445 18.3357C69.3142 18.4655 70.2904 18.5009 71.268 18.4694C71.9828 18.4459 72.6897 18.3633 73.365 18.1037C74.3491 17.7262 74.8865 16.996 75.0626 15.9787C75.0941 15.7939 75.1204 15.6051 75.1257 15.4177C75.1349 15.0519 75.1283 14.6862 75.1283 14.2746C75.0573 14.3349 75.0087 14.365 74.9733 14.407C74.1731 15.3692 73.1377 15.9499 71.9368 16.2566C70.544 16.6119 69.1408 16.6565 67.7243 16.393C66.6982 16.2029 65.7416 15.8542 64.8968 15.2394C63.6669 14.3454 62.9942 13.1131 62.7748 11.6292C62.6355 10.6893 62.6526 9.74934 62.8733 8.81992C63.3082 6.9781 64.4395 5.73275 66.1726 5.01175C67.0424 4.64994 67.9517 4.47559 68.8937 4.42054C70.0487 4.35368 71.1773 4.45593 72.2823 4.8007C73.3598 5.1376 74.2861 5.7026 75.0009 6.58614C75.0258 6.61629 75.0258 6.66742 75.0376 6.70806C75.0679 6.68839 75.0994 6.67004 75.1296 6.65038L75.127 6.64906ZM70.8791 13.3727C71.5991 13.3622 72.3086 13.3189 73.0011 13.121C73.5529 12.9624 74.0667 12.7303 74.4674 12.3082C75.1152 11.6252 75.2242 10.7902 75.0863 9.90796C74.968 9.14633 74.5528 8.56429 73.8748 8.2051C73.5187 8.01633 73.1285 7.86427 72.7343 7.77513C71.5216 7.49984 70.297 7.50115 69.0829 7.77251C68.719 7.85378 68.355 7.98225 68.0239 8.15267C66.9268 8.71766 66.5523 9.74672 66.7008 10.9278C66.8177 11.8586 67.3367 12.4983 68.179 12.8903C68.3117 12.9519 68.4496 13.003 68.5876 13.0515C69.3313 13.3071 70.1039 13.3582 70.8778 13.3727H70.8791Z" fill="#9F9F9F"/>
<path d="M14.4308 16.4257H10.6402C10.6402 16.2893 10.6402 16.1661 10.6402 16.0442C10.6402 14.2312 10.6402 12.4196 10.6402 10.6066C10.6402 10.1753 10.6152 9.74927 10.4996 9.33109C10.2696 8.5026 9.7388 7.973 8.90578 7.75801C7.71799 7.45257 6.54991 7.5037 5.43439 8.03461C4.44238 8.50654 3.92075 9.32585 3.81169 10.4087C3.79198 10.6066 3.79461 10.8059 3.7933 11.0051C3.7933 12.6818 3.7933 14.3584 3.7933 16.0337C3.7933 16.1569 3.7933 16.2802 3.7933 16.4217H0V4.82422H3.79067V6.89544C3.93914 6.73813 4.03112 6.64375 4.11915 6.54543C4.91408 5.6763 5.86142 5.04183 6.99533 4.69969C7.85727 4.44013 8.7376 4.3523 9.64026 4.41653C10.3274 4.46503 10.9923 4.59219 11.6243 4.86355C12.6741 5.3145 13.4244 6.0722 13.8947 7.10912C13.9329 7.19433 13.971 7.28085 14.0104 7.36605C14.0143 7.37392 14.0261 7.37916 14.0537 7.40276C14.1089 7.33721 14.168 7.27167 14.2206 7.20219C14.9774 6.19542 15.8959 5.3866 17.0758 4.90287C17.7708 4.6171 18.4935 4.46766 19.2437 4.41653C20.0058 4.36541 20.7534 4.41522 21.4919 4.60399C23.2354 5.05232 24.3181 6.1692 24.8043 7.88124C25 8.57077 25.0736 9.27735 25.0736 9.9931C25.0736 12.046 25.0736 14.1001 25.0736 16.153C25.0736 16.2356 25.0644 16.3169 25.0592 16.4191H21.2987C21.2961 16.3051 21.2895 16.1845 21.2895 16.0626C21.2895 14.2496 21.2882 12.4379 21.2895 10.625C21.2895 10.1937 21.2645 9.76631 21.1515 9.34813C20.9229 8.50654 20.3895 7.97038 19.5407 7.75277C18.3516 7.44864 17.1835 7.5037 16.0719 8.03986C15.1088 8.50392 14.5819 9.29832 14.465 10.3575C14.44 10.5856 14.4348 10.8177 14.4335 11.0484C14.4308 12.704 14.4321 14.3597 14.4321 16.0141C14.4321 16.1386 14.4321 16.2644 14.4321 16.4231L14.4308 16.4257Z" fill="#9F9F9F"/>
<path d="M90.8371 4.03642C90.9423 3.0716 90.7622 2.13955 90.5678 1.16948C91.0671 1.09607 91.548 1.02528 92.0617 0.950562C92.1287 2.03074 92.084 3.06898 91.8581 4.08754C92.0223 4.21732 92.1156 4.1308 92.2115 4.01676C92.4638 3.71656 92.7686 3.47798 93.1142 3.29183C93.5556 3.05456 94.0287 2.93264 94.5319 2.92871C95.6527 2.91953 96.667 3.28921 97.7037 3.78604C96.8483 4.55029 95.9457 5.14937 94.8525 5.4653C94.8919 5.51511 94.9129 5.55051 94.9418 5.57804C96.035 6.65691 96.575 7.9914 96.7603 9.48714C96.9324 10.8819 96.5934 12.147 95.7591 13.2769C95.1389 14.1172 94.3387 14.757 93.4387 15.2734C91.9894 16.1072 90.4259 16.6315 88.79 16.954C87.7652 17.1559 86.7364 17.2411 85.6918 17.1441C83.2742 16.9213 81.4741 15.5894 80.6831 13.1603C80.3468 12.1273 80.2259 11.0733 80.4466 10.001C80.6871 8.83169 81.3046 7.87473 82.1731 7.07115C83.0705 6.24266 84.1204 5.65931 85.2438 5.2005C86.471 4.69973 87.7402 4.34055 89.0528 4.15702C89.56 4.08623 90.0777 4.08623 90.5901 4.05346C90.6624 4.04822 90.736 4.04428 90.8345 4.03904L90.8371 4.03642ZM88.5535 7.73447C87.7179 7.72922 86.8625 7.79215 86.0387 8.0753C85.0651 8.4122 84.3516 9.00735 84.1703 10.0757C84.1203 10.3707 84.1164 10.6827 84.144 10.9816C84.2058 11.6698 84.5119 12.2387 85.0716 12.6608C85.4277 12.9296 85.8271 13.1118 86.2542 13.2298C87.2987 13.5168 88.3656 13.5431 89.4378 13.4697C90.0462 13.4277 90.6466 13.3359 91.2195 13.1183C92.2299 12.7329 92.8961 12.0604 93.0025 10.9435C93.0971 9.94858 92.8225 9.09125 91.9592 8.5079C91.6859 8.32306 91.3732 8.18279 91.0605 8.07006C90.2603 7.78297 89.4234 7.73184 88.5522 7.73447H88.5535Z" fill="#9F9F9F"/>
<path d="M42.6461 16.4991H38.8213V14.5301C38.7884 14.5105 38.7556 14.4921 38.724 14.4724C38.7043 14.5196 38.6951 14.5747 38.6649 14.6127C37.8345 15.6588 36.7203 16.2408 35.4471 16.5646C34.4709 16.8124 33.4762 16.8688 32.4789 16.8111C31.3595 16.7455 30.2808 16.4912 29.2861 15.9551C27.8776 15.1947 26.9775 14.0307 26.5965 12.4864C26.2799 11.2044 26.2838 9.91313 26.628 8.63369C27.0958 6.89675 28.1942 5.70645 29.8419 5.01037C30.6894 4.65249 31.5789 4.47814 32.4987 4.42177C33.6628 4.35098 34.802 4.45323 35.9175 4.80062C37.0277 5.1467 37.9738 5.73398 38.6991 6.65292C38.7175 6.67521 38.7437 6.69094 38.8107 6.74862C38.8331 6.11152 38.8068 5.51244 38.8265 4.8937H42.6132C42.6842 5.11524 42.717 15.7571 42.6461 16.5004V16.4991ZM34.5707 13.6282C35.3578 13.6518 36.1382 13.5653 36.8885 13.3018C37.7754 12.9885 38.456 12.4419 38.703 11.4967C38.791 11.1572 38.8199 10.7927 38.8107 10.4414C38.7805 9.31667 38.2208 8.52751 37.1999 8.06083C36.6007 7.78685 35.9635 7.67412 35.3118 7.61775C34.2646 7.52598 33.2358 7.58891 32.2385 7.94285C31.1611 8.32432 30.5067 9.06367 30.3832 10.2133C30.2295 11.6357 30.7919 12.7919 32.27 13.3084C33.0124 13.5679 33.781 13.6505 34.5707 13.6282Z" fill="#9F9F9F"/>
<path d="M48.4006 16.4257H44.623V4.85966C44.8385 4.79149 47.6832 4.76265 48.3927 4.8282C48.3953 5.23589 48.3979 5.65013 48.3993 6.06438C48.3993 6.48255 48.3993 6.89942 48.3993 7.33726C48.5425 7.32677 48.5819 7.21666 48.6437 7.14587C49.5542 6.0919 50.6605 5.32241 51.9863 4.87932C52.7352 4.62894 53.5052 4.48999 54.2948 4.43099C54.9374 4.38249 55.5746 4.39036 56.2145 4.4441C57.2617 4.53193 58.2655 4.78363 59.1616 5.35125C60.1852 6.00014 60.7975 6.95186 61.122 8.10282C61.3283 8.83431 61.4032 9.58414 61.4058 10.3392C61.4124 12.2767 61.4084 14.2156 61.4071 16.1531C61.4071 16.2356 61.3966 16.3182 61.39 16.4205H57.6138C57.6138 16.2959 57.6138 16.1832 57.6138 16.0705C57.6138 14.6036 57.6138 13.1367 57.6138 11.6711C57.6138 11.0615 57.5744 10.4585 57.4115 9.86598C57.1014 8.73861 56.3577 8.04252 55.2369 7.78165C53.7417 7.43296 52.2517 7.49195 50.8129 8.05432C49.4044 8.6049 48.6331 9.67066 48.4492 11.1598C48.4085 11.4915 48.4006 11.8284 48.3993 12.1627C48.394 13.4618 48.3966 14.7609 48.3966 16.06V16.427L48.4006 16.4257Z" fill="#9F9F9F"/>
<path d="M99.8178 5.62657C100.22 5.62657 100.608 5.62657 100.995 5.62657C101.572 5.62657 102.15 5.61609 102.727 5.63575C102.953 5.64361 103.191 5.68556 103.397 5.77339C104.147 6.09456 104.256 7.14459 103.605 7.63749C103.564 7.66764 103.524 7.69911 103.465 7.74499C103.888 7.86559 104.02 8.15268 104.001 8.54201C103.991 8.74914 104 8.95888 104 9.2014C103.653 9.2263 103.322 9.21057 102.948 9.21188C102.945 9.00476 102.945 8.81075 102.941 8.61674C102.933 8.28508 102.861 8.20511 102.534 8.19987C102.03 8.19331 101.526 8.19856 101.023 8.19987C100.982 8.19987 100.94 8.20773 100.862 8.21691V9.19222H99.8336C99.7758 8.97461 99.7587 6.09325 99.8191 5.62788L99.8178 5.62657ZM100.858 7.29928C100.907 7.31763 100.925 7.33074 100.945 7.33074C101.355 7.33468 101.764 7.3373 102.174 7.3373C102.31 7.3373 102.448 7.33992 102.582 7.31763C102.803 7.28093 102.907 7.14853 102.913 6.92699C102.921 6.66481 102.791 6.50619 102.525 6.50094C102 6.49046 101.475 6.49701 100.95 6.49963C100.923 6.49963 100.897 6.52323 100.86 6.54027V7.29928H100.858Z" fill="#9F9F9F"/>
<path d="M107.608 7.41989C108.22 8.01241 108.812 8.58396 109.404 9.15552C109.396 9.17387 109.388 9.19353 109.382 9.21189C108.956 9.21189 108.53 9.21713 108.105 9.20664C108.035 9.20533 107.955 9.13979 107.9 9.08473C107.615 8.80682 107.336 8.52235 107.054 8.24051C107.004 8.18938 106.948 8.1435 106.874 8.07665C106.549 8.40699 106.228 8.72292 105.921 9.05065C105.812 9.16732 105.701 9.22237 105.539 9.21844C105.161 9.20795 104.783 9.21451 104.331 9.21451C104.947 8.5761 105.567 8.02552 106.167 7.41858C105.565 6.83654 104.972 6.26367 104.348 5.66066C104.531 5.6056 104.686 5.63051 104.834 5.6292C105.138 5.6292 105.475 5.55579 105.737 5.66459C105.998 5.77209 106.185 6.06179 106.4 6.27547C106.557 6.43016 106.709 6.58878 106.883 6.76444C107.165 6.4839 107.458 6.22828 107.708 5.93595C107.919 5.68688 108.153 5.59643 108.474 5.62395C108.773 5.65017 109.076 5.6292 109.407 5.68819C108.817 6.25843 108.226 6.82867 107.609 7.42382L107.608 7.41989Z" fill="#9F9F9F"/>
</svg>
