<svg width="54" height="74" viewBox="0 0 54 74" fill="none" xmlns="http://www.w3.org/2000/svg">
<path fill-rule="evenodd" clip-rule="evenodd" d="M25.4852 61.3019V0H28.1775V61.1903C28.9249 59.5023 29.8523 57.8281 30.9888 56.2382C35.1758 50.381 42.1423 45.76 53.0809 45.76V48.4717C43.0198 48.4717 36.8615 52.6637 33.1737 57.8227C29.4364 63.0508 28.1775 69.3653 28.1775 73.5549V73.8939H25.4852V73.5549C25.4852 64.2725 21.3544 58.2174 16.1859 54.3571C10.9623 50.4556 4.65757 48.7914 0.478516 48.4677L0.685003 45.7639C5.25581 46.1181 12.0758 47.9113 17.7896 52.1789C20.8517 54.466 23.5898 57.4621 25.4852 61.3019Z" fill="#EBEBEB"/>
</svg>
