<svg width="416" height="241" viewBox="0 0 416 241" fill="none" xmlns="http://www.w3.org/2000/svg">
<g clip-path="url(#clip0_574_24036)">
<rect width="416" height="241" rx="4" fill="#141414"/>
<rect y="160" width="535" height="218" fill="#E73F20"/>
<g style="mix-blend-mode:screen">
<circle cx="266.988" cy="108.988" r="10.9883" fill="#C04C3B"/>
<circle cx="293.626" cy="108.988" r="10.9883" fill="#C04C3B"/>
<circle cx="320.265" cy="108.988" r="10.9883" fill="#C04C3B"/>
<circle cx="346.903" cy="108.988" r="10.9883" fill="#C04C3B"/>
<circle cx="373.542" cy="108.988" r="10.9883" fill="#C04C3B"/>
<circle cx="400.18" cy="108.988" r="10.9883" fill="#C04C3B"/>
<circle cx="426.818" cy="108.988" r="10.9883" fill="#C04C3B"/>
<circle cx="266.988" cy="134.961" r="10.9883" fill="#C34C3E"/>
<circle cx="293.626" cy="134.961" r="10.9883" fill="#C34C3E"/>
<circle cx="320.265" cy="134.961" r="10.9883" fill="#C34C3E"/>
<circle cx="346.903" cy="134.961" r="10.9883" fill="#C34C3E"/>
<circle cx="373.542" cy="134.961" r="10.9883" fill="#C34C3E"/>
<circle cx="400.18" cy="134.961" r="10.9883" fill="#C34C3E"/>
<circle cx="426.818" cy="134.961" r="10.9883" fill="#C34C3E"/>
<circle cx="266.988" cy="160.933" r="10.9883" fill="#C34C3E"/>
<circle cx="293.626" cy="160.933" r="10.9883" fill="#C34C3E"/>
<circle cx="320.265" cy="160.933" r="10.9883" fill="#C34C3E"/>
<circle cx="346.903" cy="160.933" r="10.9883" fill="#C34C3E"/>
<circle cx="373.542" cy="160.933" r="10.9883" fill="#C34C3E"/>
<circle cx="400.18" cy="160.933" r="10.9883" fill="#C34C3E"/>
<circle cx="426.818" cy="160.933" r="10.9883" fill="#C34C3E"/>
<circle cx="266.988" cy="186.906" r="10.9883" fill="#F6846A"/>
<circle cx="293.626" cy="186.906" r="10.9883" fill="#F3A790"/>
<circle cx="320.265" cy="186.906" r="10.9883" fill="#F5F0CF"/>
<circle cx="346.903" cy="186.906" r="10.9883" fill="#F2F3CB"/>
<circle cx="373.542" cy="186.906" r="10.9883" fill="#F3F0D1"/>
<circle cx="400.18" cy="186.906" r="10.9883" fill="#F0AB8E"/>
<circle cx="426.818" cy="186.906" r="10.9883" fill="#F7775E"/>
<circle cx="266.988" cy="212.878" r="10.9883" fill="#C24839"/>
<circle cx="293.626" cy="212.878" r="10.9883" fill="#C24839"/>
<circle cx="320.265" cy="212.878" r="10.9883" fill="#C24839"/>
<circle cx="346.903" cy="212.878" r="10.9883" fill="#C24839"/>
<circle cx="373.541" cy="212.878" r="10.9883" fill="#C24839"/>
<circle cx="400.18" cy="212.878" r="10.9883" fill="#C24839"/>
<circle cx="426.818" cy="212.878" r="10.9883" fill="#C24839"/>
<circle cx="266.988" cy="238.85" r="10.9883" fill="#C24839"/>
<circle cx="293.626" cy="238.85" r="10.9883" fill="#C24839"/>
<circle cx="320.265" cy="238.85" r="10.9883" fill="#C24839"/>
<circle cx="346.903" cy="238.85" r="10.9883" fill="#C24839"/>
<circle cx="373.542" cy="238.85" r="10.9883" fill="#C24839"/>
<circle cx="400.18" cy="238.85" r="10.9883" fill="#C24839"/>
<circle cx="426.818" cy="238.85" r="10.9883" fill="#C24839"/>
</g>
<path d="M34.7481 68H29.6711V41.9254H37.5961L42.3369 62.4278L47.0424 41.9254H54.8789V68H49.802V50.3634C49.802 49.8563 49.8079 49.1487 49.8197 48.2407C49.8315 47.3208 49.8373 46.6132 49.8373 46.1179L44.9019 68H39.6127L34.7127 46.1179C34.7127 46.6132 34.7186 47.3208 34.7304 48.2407C34.7422 49.1487 34.7481 49.8563 34.7481 50.3634V68ZM64.7144 48.7183V68H59.602V48.7183H64.7144ZM64.7144 41.7662V46.4186H59.602V41.7662H64.7144ZM69.7205 41.9254H74.7621V68H69.7205V41.9254ZM79.8036 41.9254H84.8452V68H79.8036V41.9254ZM106.285 62.3393C106.155 63.4832 105.56 64.6449 104.498 65.8242C102.847 67.6993 100.536 68.6368 97.564 68.6368C95.1111 68.6368 92.947 67.8467 91.0719 66.2664C89.1968 64.6861 88.2593 62.1152 88.2593 58.5537C88.2593 55.2163 89.1025 52.6572 90.7889 50.8764C92.4871 49.0957 94.6865 48.2053 97.3871 48.2053C98.991 48.2053 100.436 48.506 101.721 49.1074C103.007 49.7089 104.068 50.6582 104.905 51.9555C105.66 53.0994 106.149 54.4261 106.373 55.9357C106.503 56.8201 106.556 58.0938 106.533 59.7566H93.3362C93.407 61.6907 94.0143 63.0469 95.1583 63.8252C95.854 64.3088 96.6914 64.5505 97.6702 64.5505C98.708 64.5505 99.5512 64.2557 100.2 63.666C100.554 63.3476 100.866 62.9054 101.137 62.3393H106.285ZM101.297 56.431C101.214 55.0983 100.807 54.09 100.076 53.406C99.3566 52.7102 98.4603 52.3623 97.3871 52.3623C96.2196 52.3623 95.3116 52.7279 94.6629 53.4591C94.0261 54.1903 93.6251 55.1809 93.46 56.431H101.297ZM119.641 53.3707C117.612 53.3707 116.25 54.0311 115.554 55.3519C115.165 56.0949 114.971 57.2388 114.971 58.7837V68H109.894V48.7183H114.705V52.0793C115.484 50.7939 116.162 49.9153 116.74 49.4435C117.683 48.6534 118.91 48.2583 120.419 48.2583C120.513 48.2583 120.59 48.2642 120.649 48.276C120.72 48.276 120.867 48.2819 121.091 48.2937V53.4591C120.773 53.4237 120.49 53.4001 120.242 53.3883C119.995 53.3765 119.794 53.3707 119.641 53.3707ZM130.431 45.7464C130.431 47.5272 129.995 48.9305 129.122 49.9565C128.261 50.9825 127.047 51.6489 125.478 51.9555V50.0981C126.634 49.7325 127.43 49.1133 127.866 48.2407C128.102 47.7218 128.203 47.197 128.167 46.6663H125.39V42.0139H130.431V45.7464ZM147.431 49.6028C148.941 50.5698 149.808 52.2326 150.032 54.5912H144.99C144.919 53.9426 144.736 53.4296 144.442 53.0522C143.887 52.3682 142.944 52.0262 141.611 52.0262C140.515 52.0262 139.73 52.1972 139.259 52.5392C138.799 52.8812 138.569 53.2822 138.569 53.7421C138.569 54.32 138.816 54.7387 139.312 54.9981C139.807 55.2693 141.558 55.7352 144.565 56.3956C146.57 56.8673 148.074 57.5808 149.076 58.536C150.067 59.5031 150.562 60.7119 150.562 62.1624C150.562 64.0729 149.849 65.6355 148.422 66.8502C147.007 68.0531 144.813 68.6545 141.841 68.6545C138.81 68.6545 136.57 68.0177 135.119 66.744C133.68 65.4586 132.961 63.8252 132.961 61.844H138.073C138.179 62.7403 138.409 63.3771 138.763 63.7545C139.388 64.4267 140.544 64.7628 142.23 64.7628C143.221 64.7628 144.005 64.6154 144.583 64.3206C145.173 64.0257 145.468 63.5835 145.468 62.9938C145.468 62.4278 145.232 61.9973 144.76 61.7025C144.288 61.4077 142.537 60.9006 139.506 60.1812C137.324 59.6387 135.785 58.9606 134.889 58.1469C133.993 57.3449 133.545 56.1892 133.545 54.6797C133.545 52.8989 134.241 51.3717 135.632 50.0981C137.036 48.8126 139.005 48.1699 141.541 48.1699C143.946 48.1699 145.91 48.6475 147.431 49.6028ZM29.7596 84.9254H35.208V106.312H48.1215V111H29.7596V84.9254ZM52.2255 93.8057C53.5581 92.1074 55.8459 91.2583 59.089 91.2583C61.2 91.2583 63.0751 91.677 64.7144 92.5143C66.3536 93.3516 67.1732 94.9319 67.1732 97.2551V106.1C67.1732 106.713 67.185 107.456 67.2086 108.329C67.244 108.989 67.3442 109.437 67.5093 109.673C67.6744 109.909 67.9221 110.104 68.2523 110.257V111H62.7685C62.6152 110.611 62.509 110.245 62.4501 109.903C62.3911 109.561 62.3439 109.172 62.3086 108.736C61.6128 109.49 60.8108 110.133 59.9028 110.664C58.8178 111.289 57.5913 111.601 56.2233 111.601C54.4779 111.601 53.0333 111.106 51.8893 110.116C50.7572 109.113 50.1911 107.698 50.1911 105.87C50.1911 103.5 51.1051 101.784 52.933 100.722C53.9355 100.144 55.4096 99.7317 57.3555 99.484L59.0713 99.2718C60.003 99.1538 60.6693 99.0064 61.0703 98.8295C61.7897 98.5229 62.1494 98.0453 62.1494 97.3967C62.1494 96.6065 61.8722 96.064 61.3179 95.7692C60.7755 95.4626 59.9735 95.3093 58.9121 95.3093C57.721 95.3093 56.8778 95.6041 56.3825 96.1938C56.0287 96.6301 55.7929 97.2198 55.6749 97.9627H50.8103C50.9164 96.2763 51.3881 94.8906 52.2255 93.8057ZM55.9757 107.356C56.4474 107.745 57.0252 107.94 57.7092 107.94C58.7942 107.94 59.7907 107.621 60.6988 106.984C61.6187 106.348 62.0963 105.186 62.1317 103.5V101.624C61.8132 101.825 61.4889 101.99 61.1587 102.12C60.8403 102.238 60.3981 102.35 59.832 102.456L58.6999 102.668C57.6385 102.857 56.8778 103.087 56.4179 103.358C55.6396 103.818 55.2504 104.531 55.2504 105.499C55.2504 106.359 55.4921 106.979 55.9757 107.356ZM86.2957 111L83.2708 96.9544L80.2105 111H74.9744L69.5613 91.7183H74.9744L77.9816 105.552L80.7589 91.7183H85.8712L88.8077 105.605L91.8149 91.7183H97.0687L91.4788 111H86.2957ZM115.13 91.7183V111H110.018V91.7183H115.13ZM115.13 84.7662V89.4186H110.018V84.7662H115.13ZM129.105 95.4508C127.395 95.4508 126.221 96.1761 125.584 97.6266C125.254 98.3932 125.089 99.372 125.089 100.563V111H120.065V91.7537H124.93V94.5663C125.579 93.5757 126.192 92.8622 126.77 92.4259C127.807 91.6475 129.122 91.2583 130.714 91.2583C132.707 91.2583 134.335 91.7831 135.597 92.8327C136.87 93.8705 137.507 95.5982 137.507 98.0158V111H132.342V99.2718C132.342 98.2575 132.206 97.4792 131.935 96.9367C131.44 95.9461 130.496 95.4508 129.105 95.4508Z" fill="#F7F7F7"/>
<path d="M45.185 143.952V127.925H50.7218V143.952C50.7218 146.724 50.2914 148.882 49.4305 150.427C47.8266 153.257 44.7663 154.672 40.2496 154.672C35.7328 154.672 32.6666 153.257 31.0509 150.427C30.19 148.882 29.7596 146.724 29.7596 143.952V127.925H35.2964V143.952C35.2964 145.745 35.5087 147.054 35.9333 147.879C36.5937 149.342 38.0325 150.073 40.2496 150.073C42.4549 150.073 43.8877 149.342 44.5481 147.879C44.9727 147.054 45.185 145.745 45.185 143.952ZM76.9025 154H70.2866L65.3335 145.12L60.0974 154H53.7645L62.1494 140.715L54.1713 127.925H60.6811L65.3335 136.399L70.1097 127.925H76.4072L68.4292 140.503L76.9025 154ZM101.42 154H90.1875V127.925H101.42C103.036 127.949 104.38 128.138 105.454 128.492C107.282 129.093 108.762 130.196 109.894 131.799C110.802 133.097 111.421 134.5 111.751 136.01C112.081 137.519 112.246 138.958 112.246 140.326C112.246 143.793 111.551 146.73 110.159 149.135C108.272 152.378 105.359 154 101.42 154ZM105.471 134.577C104.634 133.162 102.977 132.454 100.501 132.454H95.4767V149.471H100.501C103.071 149.471 104.864 148.204 105.878 145.668C106.432 144.277 106.71 142.62 106.71 140.697C106.71 138.044 106.297 136.004 105.471 134.577ZM132.466 148.339C132.336 149.483 131.74 150.645 130.679 151.824C129.028 153.699 126.717 154.637 123.745 154.637C121.292 154.637 119.128 153.847 117.253 152.266C115.378 150.686 114.44 148.115 114.44 144.554C114.44 141.216 115.283 138.657 116.97 136.876C118.668 135.096 120.867 134.205 123.568 134.205C125.172 134.205 126.616 134.506 127.902 135.107C129.187 135.709 130.249 136.658 131.086 137.955C131.841 139.099 132.33 140.426 132.554 141.936C132.684 142.82 132.737 144.094 132.713 145.757H119.517C119.588 147.691 120.195 149.047 121.339 149.825C122.035 150.309 122.872 150.551 123.851 150.551C124.889 150.551 125.732 150.256 126.38 149.666C126.734 149.348 127.047 148.905 127.318 148.339H132.466ZM127.477 142.431C127.395 141.098 126.988 140.09 126.257 139.406C125.537 138.71 124.641 138.362 123.568 138.362C122.4 138.362 121.492 138.728 120.844 139.459C120.207 140.19 119.806 141.181 119.641 142.431H127.477ZM149.412 135.603C150.922 136.57 151.789 138.233 152.013 140.591H146.971C146.901 139.943 146.718 139.43 146.423 139.052C145.869 138.368 144.925 138.026 143.593 138.026C142.496 138.026 141.712 138.197 141.24 138.539C140.78 138.881 140.55 139.282 140.55 139.742C140.55 140.32 140.798 140.739 141.293 140.998C141.788 141.269 143.539 141.735 146.547 142.396C148.552 142.867 150.055 143.581 151.058 144.536C152.048 145.503 152.544 146.712 152.544 148.162C152.544 150.073 151.83 151.635 150.403 152.85C148.988 154.053 146.794 154.655 143.823 154.655C140.792 154.655 138.551 154.018 137.1 152.744C135.662 151.459 134.942 149.825 134.942 147.844H140.055C140.161 148.74 140.391 149.377 140.745 149.754C141.37 150.427 142.525 150.763 144.212 150.763C145.202 150.763 145.987 150.615 146.564 150.321C147.154 150.026 147.449 149.583 147.449 148.994C147.449 148.428 147.213 147.997 146.741 147.702C146.27 147.408 144.518 146.901 141.487 146.181C139.306 145.639 137.767 144.961 136.87 144.147C135.974 143.345 135.526 142.189 135.526 140.68C135.526 138.899 136.222 137.372 137.613 136.098C139.017 134.813 140.986 134.17 143.522 134.17C145.928 134.17 147.891 134.648 149.412 135.603ZM161.477 134.718V154H156.364V134.718H161.477ZM161.477 127.766V132.419H156.364V127.766H161.477ZM171.825 157.379C172.368 157.839 173.282 158.069 174.567 158.069C176.383 158.069 177.598 157.461 178.211 156.247C178.612 155.468 178.813 154.159 178.813 152.319V151.081C178.329 151.907 177.81 152.526 177.256 152.939C176.254 153.705 174.95 154.088 173.347 154.088C170.87 154.088 168.889 153.222 167.403 151.488C165.929 149.743 165.192 147.384 165.192 144.412C165.192 141.546 165.905 139.141 167.332 137.195C168.759 135.237 170.782 134.258 173.4 134.258C174.367 134.258 175.21 134.406 175.929 134.701C177.156 135.208 178.146 136.139 178.901 137.496V134.718H183.801V153.009C183.801 155.498 183.382 157.373 182.545 158.635C181.106 160.805 178.347 161.89 174.266 161.89C171.802 161.89 169.791 161.406 168.234 160.439C166.678 159.472 165.817 158.027 165.652 156.105H171.135C171.277 156.695 171.507 157.119 171.825 157.379ZM170.976 147.419C171.66 149.047 172.887 149.861 174.656 149.861C175.835 149.861 176.831 149.418 177.645 148.534C178.459 147.638 178.866 146.217 178.866 144.271C178.866 142.443 178.477 141.051 177.698 140.096C176.932 139.141 175.9 138.663 174.603 138.663C172.834 138.663 171.613 139.494 170.941 141.157C170.587 142.042 170.41 143.133 170.41 144.43C170.41 145.55 170.599 146.547 170.976 147.419ZM197.599 138.451C195.889 138.451 194.716 139.176 194.079 140.627C193.749 141.393 193.584 142.372 193.584 143.563V154H188.56V134.754H193.424V137.566C194.073 136.576 194.686 135.862 195.264 135.426C196.302 134.648 197.617 134.258 199.209 134.258C201.202 134.258 202.829 134.783 204.091 135.833C205.365 136.871 206.002 138.598 206.002 141.016V154H200.836V142.272C200.836 141.258 200.701 140.479 200.429 139.937C199.934 138.946 198.991 138.451 197.599 138.451Z" fill="#E73F20"/>
<path d="M31.9823 184.607C31.2962 184.607 30.6783 184.471 30.1286 184.198C29.5789 183.925 29.1384 183.551 28.807 183.075C28.4756 182.599 28.2943 182.057 28.2631 181.449H29.6666C29.7212 181.991 29.9668 182.44 30.4034 182.794C30.844 183.145 31.3703 183.321 31.9823 183.321C32.4736 183.321 32.9102 183.206 33.2923 182.976C33.6782 182.746 33.9803 182.43 34.1987 182.028C34.4209 181.623 34.532 181.165 34.532 180.654C34.532 180.132 34.417 179.666 34.187 179.256C33.9609 178.843 33.649 178.518 33.2513 178.28C32.8537 178.042 32.3995 177.921 31.8888 177.917C31.5223 177.913 31.1461 177.97 30.7601 178.087C30.3742 178.2 30.0565 178.346 29.807 178.525L28.4503 178.362L29.1754 172.467H35.3975V173.754H30.3917L29.9707 177.286H30.0409C30.2865 177.091 30.5945 176.929 30.9648 176.8C31.3352 176.672 31.7211 176.607 32.1227 176.607C32.8556 176.607 33.5086 176.783 34.0817 177.134C34.6587 177.481 35.1109 177.956 35.4384 178.56C35.7698 179.165 35.9355 179.855 35.9355 180.631C35.9355 181.395 35.7639 182.077 35.4209 182.677C35.0817 183.274 34.6139 183.746 34.0174 184.092C33.4209 184.436 32.7426 184.607 31.9823 184.607ZM42.9134 184.443V175.461H44.2467V176.818H44.3403C44.504 176.373 44.8003 176.013 45.2291 175.736C45.658 175.459 46.1414 175.321 46.6794 175.321C46.7807 175.321 46.9074 175.323 47.0595 175.327C47.2115 175.331 47.3265 175.336 47.4045 175.344V176.748C47.3577 176.736 47.2505 176.718 47.0829 176.695C46.9191 176.668 46.7457 176.654 46.5624 176.654C46.1258 176.654 45.7359 176.746 45.3929 176.929C45.0537 177.108 44.7847 177.358 44.5859 177.677C44.3909 177.993 44.2935 178.354 44.2935 178.759V184.443H42.9134ZM52.533 184.63C51.6676 184.63 50.921 184.439 50.2933 184.057C49.6696 183.671 49.1881 183.133 48.8489 182.443C48.5136 181.749 48.346 180.942 48.346 180.022C48.346 179.102 48.5136 178.291 48.8489 177.59C49.1881 176.884 49.6598 176.334 50.2641 175.941C50.8723 175.543 51.5818 175.344 52.3927 175.344C52.8605 175.344 53.3225 175.422 53.7786 175.578C54.2348 175.734 54.65 175.987 55.0242 176.338C55.3985 176.685 55.6967 177.145 55.9189 177.718C56.1412 178.291 56.2523 178.997 56.2523 179.835V180.42H49.3284V179.227H54.8488C54.8488 178.72 54.7474 178.268 54.5447 177.87C54.3459 177.473 54.0613 177.159 53.6909 176.929C53.3245 176.699 52.8917 176.584 52.3927 176.584C51.843 176.584 51.3674 176.72 50.9658 176.993C50.5682 177.262 50.2621 177.613 50.0477 178.046C49.8333 178.479 49.7261 178.943 49.7261 179.438V180.233C49.7261 180.911 49.843 181.486 50.077 181.958C50.3148 182.426 50.6442 182.783 51.0652 183.028C51.4863 183.27 51.9756 183.391 52.533 183.391C52.8956 183.391 53.2231 183.34 53.5155 183.239C53.8118 183.133 54.0671 182.978 54.2815 182.771C54.496 182.56 54.6617 182.299 54.7786 181.987L56.1119 182.362C55.9716 182.814 55.7357 183.211 55.4043 183.554C55.073 183.894 54.6636 184.159 54.1763 184.35C53.689 184.537 53.1412 184.63 52.533 184.63ZM60.9948 184.654C60.4257 184.654 59.9091 184.547 59.4452 184.332C58.9812 184.114 58.6128 183.8 58.3399 183.391C58.067 182.978 57.9306 182.478 57.9306 181.894C57.9306 181.379 58.0319 180.962 58.2347 180.642C58.4374 180.319 58.7083 180.065 59.0475 179.882C59.3867 179.699 59.761 179.562 60.1703 179.473C60.5835 179.379 60.9987 179.305 61.4159 179.25C61.9617 179.18 62.4042 179.128 62.7433 179.093C63.0864 179.054 63.3359 178.989 63.4919 178.9C63.6517 178.81 63.7316 178.654 63.7316 178.432V178.385C63.7316 177.808 63.5737 177.36 63.258 177.04C62.9461 176.72 62.4724 176.56 61.8369 176.56C61.1781 176.56 60.6615 176.705 60.2873 176.993C59.913 177.282 59.6498 177.59 59.4978 177.917L58.1879 177.449C58.4218 176.904 58.7337 176.479 59.1235 176.175C59.5173 175.867 59.9461 175.652 60.4101 175.531C60.8779 175.407 61.3379 175.344 61.7901 175.344C62.0786 175.344 62.41 175.379 62.7843 175.449C63.1624 175.516 63.5269 175.654 63.8778 175.865C64.2326 176.075 64.5269 176.393 64.7608 176.818C64.9948 177.243 65.1117 177.812 65.1117 178.525V184.443H63.7316V183.227H63.6614C63.5679 183.422 63.4119 183.631 63.1936 183.853C62.9753 184.075 62.6849 184.264 62.3223 184.42C61.9597 184.576 61.5172 184.654 60.9948 184.654ZM61.2054 183.414C61.7512 183.414 62.2112 183.307 62.5855 183.093C62.9636 182.878 63.2482 182.601 63.4392 182.262C63.6342 181.923 63.7316 181.566 63.7316 181.192V179.929C63.6731 179.999 63.5445 180.063 63.3457 180.122C63.1507 180.176 62.9246 180.225 62.6673 180.268C62.4139 180.307 62.1664 180.342 61.9246 180.373C61.6868 180.401 61.4939 180.424 61.3457 180.443C60.987 180.49 60.6518 180.566 60.3399 180.672C60.0319 180.773 59.7824 180.927 59.5914 181.133C59.4042 181.336 59.3107 181.613 59.3107 181.964C59.3107 182.443 59.4881 182.806 59.8428 183.052C60.2015 183.293 60.6557 183.414 61.2054 183.414ZM69.0107 172.467V184.443H67.6307V172.467H69.0107ZM79.9359 184.63C79.0705 184.63 78.3239 184.439 77.6962 184.057C77.0724 183.671 76.591 183.133 76.2518 182.443C75.9165 181.749 75.7489 180.942 75.7489 180.022C75.7489 179.102 75.9165 178.291 76.2518 177.59C76.591 176.884 77.0627 176.334 77.667 175.941C78.2752 175.543 78.9847 175.344 79.7956 175.344C80.2634 175.344 80.7254 175.422 81.1815 175.578C81.6376 175.734 82.0528 175.987 82.4271 176.338C82.8014 176.685 83.0996 177.145 83.3218 177.718C83.544 178.291 83.6551 178.997 83.6551 179.835V180.42H76.7313V179.227H82.2517C82.2517 178.72 82.1503 178.268 81.9476 177.87C81.7488 177.473 81.4642 177.159 81.0938 176.929C80.7273 176.699 80.2946 176.584 79.7956 176.584C79.2459 176.584 78.7703 176.72 78.3687 176.993C77.9711 177.262 77.665 177.613 77.4506 178.046C77.2362 178.479 77.129 178.943 77.129 179.438V180.233C77.129 180.911 77.2459 181.486 77.4798 181.958C77.7177 182.426 78.0471 182.783 78.4681 183.028C78.8892 183.27 79.3784 183.391 79.9359 183.391C80.2985 183.391 80.626 183.34 80.9184 183.239C81.2147 183.133 81.47 182.978 81.6844 182.771C81.8989 182.56 82.0645 182.299 82.1815 181.987L83.5148 182.362C83.3745 182.814 83.1386 183.211 82.8072 183.554C82.4758 183.894 82.0665 184.159 81.5792 184.35C81.0919 184.537 80.5441 184.63 79.9359 184.63ZM86.5425 175.461L88.6945 179.134L90.8465 175.461H92.4371L89.5366 179.952L92.4371 184.443H90.8465L88.6945 180.958L86.5425 184.443H84.9519L87.8056 179.952L84.9519 175.461H86.5425ZM97.0496 184.654C96.4804 184.654 95.9638 184.547 95.4999 184.332C95.036 184.114 94.6676 183.8 94.3947 183.391C94.1218 182.978 93.9853 182.478 93.9853 181.894C93.9853 181.379 94.0867 180.962 94.2894 180.642C94.4921 180.319 94.7631 180.065 95.1023 179.882C95.4414 179.699 95.8157 179.562 96.225 179.473C96.6383 179.379 97.0535 179.305 97.4706 179.25C98.0164 179.18 98.4589 179.128 98.7981 179.093C99.1411 179.054 99.3907 178.989 99.5466 178.9C99.7064 178.81 99.7864 178.654 99.7864 178.432V178.385C99.7864 177.808 99.6285 177.36 99.3127 177.04C99.0008 176.72 98.5271 176.56 97.8917 176.56C97.2328 176.56 96.7163 176.705 96.342 176.993C95.9677 177.282 95.7046 177.59 95.5525 177.917L94.2426 177.449C94.4765 176.904 94.7884 176.479 95.1783 176.175C95.572 175.867 96.0009 175.652 96.4648 175.531C96.9326 175.407 97.3927 175.344 97.8449 175.344C98.1334 175.344 98.4648 175.379 98.839 175.449C99.2172 175.516 99.5817 175.654 99.9326 175.865C100.287 176.075 100.582 176.393 100.816 176.818C101.049 177.243 101.166 177.812 101.166 178.525V184.443H99.7864V183.227H99.7162C99.6226 183.422 99.4667 183.631 99.2484 183.853C99.03 184.075 98.7396 184.264 98.377 184.42C98.0145 184.576 97.572 184.654 97.0496 184.654ZM97.2601 183.414C97.8059 183.414 98.2659 183.307 98.6402 183.093C99.0183 182.878 99.3029 182.601 99.494 182.262C99.6889 181.923 99.7864 181.566 99.7864 181.192V179.929C99.7279 179.999 99.5992 180.063 99.4004 180.122C99.2055 180.176 98.9794 180.225 98.7221 180.268C98.4686 180.307 98.2211 180.342 97.9794 180.373C97.7416 180.401 97.5486 180.424 97.4004 180.443C97.0418 180.49 96.7065 180.566 96.3946 180.672C96.0866 180.773 95.8371 180.927 95.6461 181.133C95.459 181.336 95.3654 181.613 95.3654 181.964C95.3654 182.443 95.5428 182.806 95.8976 183.052C96.2562 183.293 96.7104 183.414 97.2601 183.414ZM103.685 184.443V175.461H105.019V176.865H105.136C105.323 176.385 105.625 176.013 106.042 175.748C106.459 175.479 106.96 175.344 107.545 175.344C108.138 175.344 108.631 175.479 109.024 175.748C109.422 176.013 109.732 176.385 109.954 176.865H110.048C110.278 176.401 110.623 176.032 111.083 175.759C111.543 175.483 112.095 175.344 112.738 175.344C113.541 175.344 114.198 175.596 114.709 176.099C115.219 176.598 115.475 177.375 115.475 178.432V184.443H114.095V178.432C114.095 177.769 113.913 177.295 113.551 177.011C113.188 176.726 112.761 176.584 112.27 176.584C111.638 176.584 111.149 176.775 110.802 177.157C110.455 177.535 110.282 178.015 110.282 178.596V184.443H108.878V178.291C108.878 177.781 108.713 177.369 108.381 177.058C108.05 176.742 107.623 176.584 107.101 176.584C106.742 176.584 106.407 176.679 106.095 176.87C105.787 177.061 105.537 177.327 105.346 177.666C105.159 178.001 105.065 178.389 105.065 178.829V184.443H103.685ZM117.998 187.812V175.461H119.331V176.888H119.495C119.596 176.732 119.737 176.533 119.916 176.291C120.099 176.046 120.36 175.828 120.7 175.637C121.043 175.442 121.507 175.344 122.091 175.344C122.848 175.344 123.514 175.533 124.091 175.911C124.668 176.29 125.119 176.826 125.442 177.52C125.766 178.213 125.928 179.032 125.928 179.976C125.928 180.927 125.766 181.751 125.442 182.449C125.119 183.143 124.67 183.681 124.097 184.063C123.524 184.441 122.863 184.63 122.115 184.63C121.538 184.63 121.076 184.535 120.729 184.344C120.382 184.149 120.115 183.929 119.928 183.683C119.741 183.434 119.596 183.227 119.495 183.063H119.378V187.812H117.998ZM119.355 179.952C119.355 180.631 119.454 181.229 119.653 181.748C119.852 182.262 120.142 182.666 120.524 182.958C120.906 183.247 121.374 183.391 121.928 183.391C122.505 183.391 122.986 183.239 123.372 182.935C123.762 182.627 124.054 182.213 124.249 181.695C124.448 181.172 124.547 180.592 124.547 179.952C124.547 179.321 124.45 178.751 124.255 178.245C124.064 177.734 123.774 177.33 123.384 177.034C122.998 176.734 122.512 176.584 121.928 176.584C121.366 176.584 120.895 176.726 120.512 177.011C120.13 177.291 119.842 177.685 119.647 178.192C119.452 178.695 119.355 179.282 119.355 179.952ZM129.413 172.467V184.443H128.033V172.467H129.413ZM135.707 184.63C134.841 184.63 134.095 184.439 133.467 184.057C132.843 183.671 132.362 183.133 132.022 182.443C131.687 181.749 131.52 180.942 131.52 180.022C131.52 179.102 131.687 178.291 132.022 177.59C132.362 176.884 132.833 176.334 133.438 175.941C134.046 175.543 134.755 175.344 135.566 175.344C136.034 175.344 136.496 175.422 136.952 175.578C137.408 175.734 137.824 175.987 138.198 176.338C138.572 176.685 138.87 177.145 139.092 177.718C139.315 178.291 139.426 178.997 139.426 179.835V180.42H132.502V179.227H138.022C138.022 178.72 137.921 178.268 137.718 177.87C137.519 177.473 137.235 177.159 136.864 176.929C136.498 176.699 136.065 176.584 135.566 176.584C135.017 176.584 134.541 176.72 134.139 176.993C133.742 177.262 133.436 177.613 133.221 178.046C133.007 178.479 132.9 178.943 132.9 179.438V180.233C132.9 180.911 133.017 181.486 133.251 181.958C133.488 182.426 133.818 182.783 134.239 183.028C134.66 183.27 135.149 183.391 135.707 183.391C136.069 183.391 136.397 183.34 136.689 183.239C136.985 183.133 137.241 182.978 137.455 182.771C137.67 182.56 137.835 182.299 137.952 181.987L139.285 182.362C139.145 182.814 138.909 183.211 138.578 183.554C138.247 183.894 137.837 184.159 137.35 184.35C136.863 184.537 136.315 184.63 135.707 184.63ZM147.888 177.473L146.648 177.824C146.57 177.617 146.455 177.416 146.303 177.221C146.155 177.022 145.952 176.859 145.695 176.73C145.437 176.601 145.108 176.537 144.706 176.537C144.157 176.537 143.699 176.664 143.332 176.917C142.97 177.167 142.788 177.484 142.788 177.87C142.788 178.213 142.913 178.484 143.163 178.683C143.412 178.882 143.802 179.048 144.332 179.18L145.665 179.508C146.469 179.703 147.067 180.001 147.461 180.403C147.854 180.8 148.051 181.313 148.051 181.94C148.051 182.455 147.903 182.915 147.607 183.321C147.315 183.726 146.905 184.046 146.379 184.28C145.853 184.514 145.24 184.63 144.543 184.63C143.626 184.63 142.868 184.432 142.268 184.034C141.667 183.636 141.287 183.055 141.128 182.291L142.437 181.964C142.562 182.447 142.798 182.81 143.145 183.052C143.496 183.293 143.954 183.414 144.519 183.414C145.163 183.414 145.673 183.278 146.051 183.005C146.433 182.728 146.624 182.397 146.624 182.011C146.624 181.699 146.515 181.438 146.297 181.227C146.079 181.013 145.743 180.853 145.291 180.748L143.794 180.397C142.972 180.202 142.367 179.9 141.981 179.49C141.599 179.077 141.408 178.56 141.408 177.941C141.408 177.434 141.551 176.985 141.835 176.596C142.124 176.206 142.515 175.9 143.011 175.677C143.51 175.455 144.075 175.344 144.706 175.344C145.595 175.344 146.293 175.539 146.8 175.929C147.311 176.319 147.673 176.833 147.888 177.473Z" fill="white"/>
<g filter="url(#filter0_di_574_24036)">
<g clip-path="url(#clip1_574_24036)">
<rect x="321.988" y="41.814" width="65.6404" height="22.4559" rx="11.228" fill="#E73F20"/>
<path d="M328.323 52.9756C328.369 53.0184 328.43 53.042 328.494 53.0418C328.557 53.0416 328.617 53.0178 328.664 52.9751C328.71 52.9324 328.739 52.8739 328.744 52.811C328.804 52.4208 328.988 52.0604 329.27 51.7835C329.551 51.5066 329.914 51.3281 330.305 51.2744C330.362 51.2631 330.414 51.2323 330.451 51.1872C330.488 51.1422 330.508 51.0857 330.508 51.0273C330.508 50.969 330.488 50.9125 330.451 50.8674C330.414 50.8224 330.362 50.7915 330.305 50.7802C329.913 50.7286 329.549 50.5507 329.267 50.2734C328.986 49.9962 328.802 49.6347 328.744 49.2436C328.739 49.1804 328.71 49.1213 328.664 49.0782C328.617 49.0352 328.556 49.0112 328.493 49.0112C328.429 49.0112 328.368 49.0352 328.322 49.0782C328.275 49.1213 328.247 49.1804 328.242 49.2436C328.182 49.6339 327.997 49.9943 327.716 50.2712C327.435 50.548 327.072 50.7266 326.681 50.7802C326.623 50.7915 326.572 50.8224 326.535 50.8674C326.498 50.9125 326.478 50.969 326.478 51.0273C326.478 51.0857 326.498 51.1422 326.535 51.1872C326.572 51.2323 326.623 51.2631 326.681 51.2744C327.072 51.3261 327.437 51.504 327.718 51.7812C328 52.0585 328.184 52.42 328.242 52.811C328.247 52.8741 328.276 52.9329 328.323 52.9756Z" fill="white"/>
<path d="M332.738 55.3445C332.71 55.3446 332.682 55.3338 332.661 55.3142C332.64 55.2947 332.628 55.2678 332.625 55.2391C332.619 55.1551 332.448 53.1757 330.452 52.7206C330.427 52.715 330.404 52.7009 330.388 52.6807C330.372 52.6605 330.363 52.6353 330.363 52.6094C330.363 52.5835 330.372 52.5584 330.388 52.5381C330.404 52.5179 330.427 52.5038 330.452 52.4982C332.452 52.0424 332.624 50.0006 332.625 49.9797C332.627 49.951 332.64 49.9242 332.661 49.9047C332.682 49.8852 332.71 49.8744 332.738 49.8745C332.767 49.8744 332.795 49.8853 332.816 49.9049C332.837 49.9244 332.849 49.9513 332.851 49.98C332.858 50.064 333.029 52.0435 335.025 52.4985C335.05 52.5042 335.073 52.5183 335.089 52.5385C335.105 52.5587 335.114 52.5838 335.114 52.6098C335.114 52.6357 335.105 52.6608 335.089 52.681C335.073 52.7012 335.05 52.7153 335.025 52.721C333.024 53.1768 332.853 55.2186 332.852 55.2395C332.849 55.2681 332.836 55.2949 332.815 55.3144C332.794 55.3339 332.767 55.3447 332.738 55.3445ZM332.358 53.9332C332.661 52.2891 332.625 52.6807 332.661 51.9258C332.846 51.2951 333.389 52.1767 334.593 52.6095C333.397 52.1794 334.208 52.4982 332.738 52.2891C332.508 53.1371 332.661 52.5381 332.358 53.9332Z" fill="white"/>
<path d="M328.639 55.0254C328.695 55.0821 328.772 55.1139 328.852 55.1139C328.932 55.1139 329.009 55.0821 329.066 55.0254C329.123 54.9687 329.155 54.8918 329.155 54.8117V54.2071C329.155 54.1269 329.123 54.05 329.066 53.9933C329.009 53.9366 328.932 53.9048 328.852 53.9048C328.772 53.9048 328.695 53.9366 328.639 53.9933C328.582 54.05 328.55 54.1269 328.55 54.2071V54.8117C328.55 54.8918 328.582 54.9687 328.639 55.0254Z" fill="white"/>
<path d="M327.643 55.7185H328.248C328.328 55.7185 328.405 55.6867 328.461 55.63C328.518 55.5733 328.55 55.4964 328.55 55.4162C328.55 55.3361 328.518 55.2592 328.461 55.2025C328.405 55.1458 328.328 55.1139 328.248 55.1139H327.643C327.563 55.1139 327.486 55.1458 327.429 55.2025C327.373 55.2592 327.341 55.3361 327.341 55.4162C327.341 55.4964 327.373 55.5733 327.429 55.63C327.486 55.6867 327.563 55.7185 327.643 55.7185Z" fill="white"/>
<path d="M328.639 56.8392C328.695 56.8958 328.772 56.9277 328.852 56.9277C328.932 56.9277 329.009 56.8958 329.066 56.8392C329.123 56.7825 329.155 56.7056 329.155 56.6254V56.0208C329.155 55.9407 329.123 55.8638 329.066 55.8071C329.009 55.7504 328.932 55.7185 328.852 55.7185C328.772 55.7185 328.695 55.7504 328.639 55.8071C328.582 55.8638 328.55 55.9407 328.55 56.0208V56.6254C328.55 56.7056 328.582 56.7825 328.639 56.8392Z" fill="white"/>
<path d="M329.457 55.7185H330.061C330.142 55.7185 330.219 55.6867 330.275 55.63C330.332 55.5733 330.364 55.4964 330.364 55.4162C330.364 55.3361 330.332 55.2592 330.275 55.2025C330.219 55.1458 330.142 55.1139 330.061 55.1139H329.457C329.377 55.1139 329.3 55.1458 329.243 55.2025C329.186 55.2592 329.155 55.3361 329.155 55.4162C329.155 55.4964 329.186 55.5733 329.243 55.63C329.3 55.6867 329.377 55.7185 329.457 55.7185Z" fill="white"/>
<path d="M341.851 50.9279H342.524V53.8525C342.524 54.1637 342.451 54.4394 342.305 54.6797C342.159 54.9186 341.953 55.1067 341.688 55.2442C341.423 55.3803 341.113 55.4483 340.757 55.4483C340.402 55.4483 340.092 55.3803 339.827 55.2442C339.562 55.1067 339.357 54.9186 339.211 54.6797C339.065 54.4394 338.991 54.1637 338.991 53.8525V50.9279H339.662V53.7982C339.662 53.9994 339.707 54.1782 339.795 54.3345C339.885 54.4908 340.011 54.6139 340.175 54.7036C340.338 54.7919 340.532 54.8361 340.757 54.8361C340.982 54.8361 341.177 54.7919 341.341 54.7036C341.506 54.6139 341.632 54.4908 341.718 54.3345C341.807 54.1782 341.851 53.9994 341.851 53.7982V50.9279ZM343.966 50.9279L345.03 52.667H345.065L346.129 50.9279H346.906L345.521 53.1512L346.915 55.3745H346.133L345.065 53.6593H345.03L343.962 55.3745H343.18L344.598 53.1512L343.189 50.9279H343.966ZM349.19 55.3745V50.9279H350.775C351.121 50.9279 351.407 50.9908 351.634 51.1168C351.862 51.2427 352.032 51.4149 352.145 51.6335C352.258 51.8506 352.314 52.0953 352.314 52.3674C352.314 52.641 352.257 52.887 352.142 53.1056C352.03 53.3227 351.859 53.495 351.63 53.6223C351.403 53.7483 351.117 53.8112 350.772 53.8112H349.682V53.2424H350.712C350.93 53.2424 351.108 53.2047 351.244 53.1295C351.38 53.0528 351.48 52.9485 351.543 52.8168C351.607 52.6851 351.639 52.5353 351.639 52.3674C351.639 52.1995 351.607 52.0504 351.543 51.9201C351.48 51.7898 351.379 51.6878 351.241 51.614C351.105 51.5402 350.926 51.5032 350.703 51.5032H349.861V55.3745H349.19ZM355.547 52.8537L354.959 52.958C354.934 52.8827 354.895 52.811 354.842 52.743C354.79 52.675 354.719 52.6192 354.629 52.5758C354.539 52.5324 354.427 52.5107 354.293 52.5107C354.109 52.5107 353.955 52.5519 353.832 52.6344C353.709 52.7155 353.648 52.8204 353.648 52.9493C353.648 53.0607 353.689 53.1505 353.771 53.2185C353.854 53.2865 353.987 53.3423 354.171 53.3857L354.701 53.5073C355.008 53.5782 355.236 53.6875 355.387 53.8351C355.537 53.9828 355.613 54.1746 355.613 54.4105C355.613 54.6102 355.555 54.7883 355.439 54.9446C355.325 55.0995 355.165 55.2211 354.959 55.3094C354.755 55.3977 354.518 55.4418 354.249 55.4418C353.876 55.4418 353.571 55.3622 353.335 55.203C353.099 55.0423 352.954 54.8143 352.901 54.5191L353.528 54.4235C353.567 54.5871 353.648 54.7108 353.769 54.7948C353.891 54.8773 354.049 54.9186 354.245 54.9186C354.458 54.9186 354.628 54.8744 354.755 54.7861C354.882 54.6964 354.946 54.5871 354.946 54.4583C354.946 54.354 354.907 54.2665 354.829 54.1955C354.752 54.1246 354.634 54.0711 354.475 54.0349L353.91 53.9111C353.599 53.8402 353.369 53.7273 353.22 53.5724C353.072 53.4175 352.998 53.2214 352.998 52.984C352.998 52.7872 353.053 52.6149 353.163 52.4673C353.273 52.3196 353.425 52.2045 353.619 52.122C353.813 52.0381 354.036 51.9961 354.286 51.9961C354.646 51.9961 354.93 52.0743 355.137 52.2306C355.344 52.3855 355.481 52.5932 355.547 52.8537ZM356.737 56.6251C356.64 56.6251 356.551 56.6172 356.472 56.6012C356.392 56.5868 356.333 56.5708 356.294 56.5535L356.45 56.0215C356.569 56.0534 356.675 56.0671 356.767 56.0628C356.86 56.0584 356.942 56.0237 357.012 55.9586C357.085 55.8934 357.149 55.787 357.204 55.6394L357.284 55.4179L356.064 52.0395H356.758L357.603 54.6276H357.638L358.482 52.0395H359.179L357.805 55.8196C357.741 55.9933 357.66 56.1402 357.562 56.2604C357.463 56.382 357.346 56.4731 357.21 56.5339C357.074 56.5947 356.916 56.6251 356.737 56.6251ZM361.081 55.4418C360.758 55.4418 360.48 55.3687 360.247 55.2225C360.015 55.0749 359.837 54.8715 359.713 54.6124C359.588 54.3533 359.526 54.0566 359.526 53.7222C359.526 53.3835 359.59 53.0846 359.717 52.8255C359.845 52.565 360.024 52.3616 360.256 52.2154C360.487 52.0692 360.76 51.9961 361.074 51.9961C361.328 51.9961 361.553 52.0432 361.752 52.1372C361.95 52.2299 362.11 52.3601 362.232 52.5281C362.355 52.696 362.428 52.8921 362.451 53.1165H361.819C361.784 52.9601 361.705 52.8255 361.58 52.7126C361.457 52.5997 361.292 52.5433 361.085 52.5433C360.904 52.5433 360.746 52.591 360.61 52.6866C360.475 52.7806 360.37 52.9153 360.295 53.0904C360.22 53.2641 360.182 53.4696 360.182 53.707C360.182 53.9502 360.219 54.1601 360.293 54.3367C360.366 54.5133 360.471 54.6501 360.605 54.747C360.741 54.844 360.901 54.8925 361.085 54.8925C361.208 54.8925 361.32 54.8701 361.42 54.8252C361.521 54.7789 361.606 54.713 361.674 54.6276C361.743 54.5422 361.792 54.4394 361.819 54.3193H362.451C362.428 54.535 362.357 54.7275 362.24 54.8968C362.123 55.0662 361.966 55.1994 361.769 55.2963C361.574 55.3933 361.344 55.4418 361.081 55.4418ZM363.794 53.3944V55.3745H363.145V50.9279H363.786V52.5823H363.827C363.905 52.4028 364.024 52.2603 364.185 52.1546C364.346 52.0489 364.556 51.9961 364.815 51.9961C365.043 51.9961 365.243 52.0432 365.414 52.1372C365.586 52.2313 365.719 52.3717 365.814 52.5585C365.909 52.7437 365.957 52.9753 365.957 53.2532V55.3745H365.308V53.3314C365.308 53.0868 365.245 52.8972 365.119 52.7625C364.993 52.6265 364.818 52.5585 364.593 52.5585C364.44 52.5585 364.302 52.591 364.181 52.6562C364.061 52.7213 363.966 52.8168 363.896 52.9428C363.828 53.0672 363.794 53.2178 363.794 53.3944ZM368.228 55.4418C367.915 55.4418 367.642 55.3702 367.409 55.2269C367.176 55.0836 366.995 54.8831 366.867 54.6254C366.738 54.3678 366.673 54.0667 366.673 53.7222C366.673 53.3763 366.738 53.0738 366.867 52.8147C366.995 52.5556 367.176 52.3544 367.409 52.2111C367.642 52.0678 367.915 51.9961 368.228 51.9961C368.541 51.9961 368.813 52.0678 369.046 52.2111C369.279 52.3544 369.46 52.5556 369.589 52.8147C369.718 53.0738 369.782 53.3763 369.782 53.7222C369.782 54.0667 369.718 54.3678 369.589 54.6254C369.46 54.8831 369.279 55.0836 369.046 55.2269C368.813 55.3702 368.541 55.4418 368.228 55.4418ZM368.23 54.8968C368.433 54.8968 368.601 54.8433 368.734 54.7362C368.867 54.6291 368.965 54.4865 369.029 54.3084C369.094 54.1304 369.127 53.9343 369.127 53.72C369.127 53.5073 369.094 53.3119 369.029 53.1338C368.965 52.9543 368.867 52.8103 368.734 52.7018C368.601 52.5932 368.433 52.5389 368.23 52.5389C368.026 52.5389 367.857 52.5932 367.722 52.7018C367.589 52.8103 367.49 52.9543 367.425 53.1338C367.361 53.3119 367.329 53.5073 367.329 53.72C367.329 53.9343 367.361 54.1304 367.425 54.3084C367.49 54.4865 367.589 54.6291 367.722 54.7362C367.857 54.8433 368.026 54.8968 368.23 54.8968ZM371.156 50.9279V55.3745H370.507V50.9279H371.156ZM373.434 55.4418C373.122 55.4418 372.849 55.3702 372.616 55.2269C372.383 55.0836 372.202 54.8831 372.073 54.6254C371.944 54.3678 371.88 54.0667 371.88 53.7222C371.88 53.3763 371.944 53.0738 372.073 52.8147C372.202 52.5556 372.383 52.3544 372.616 52.2111C372.849 52.0678 373.122 51.9961 373.434 51.9961C373.747 51.9961 374.02 52.0678 374.253 52.2111C374.486 52.3544 374.667 52.5556 374.796 52.8147C374.925 53.0738 374.989 53.3763 374.989 53.7222C374.989 54.0667 374.925 54.3678 374.796 54.6254C374.667 54.8831 374.486 55.0836 374.253 55.2269C374.02 55.3702 373.747 55.4418 373.434 55.4418ZM373.437 54.8968C373.639 54.8968 373.807 54.8433 373.94 54.7362C374.074 54.6291 374.172 54.4865 374.236 54.3084C374.301 54.1304 374.333 53.9343 374.333 53.72C374.333 53.5073 374.301 53.3119 374.236 53.1338C374.172 52.9543 374.074 52.8103 373.94 52.7018C373.807 52.5932 373.639 52.5389 373.437 52.5389C373.233 52.5389 373.063 52.5932 372.929 52.7018C372.795 52.8103 372.696 52.9543 372.631 53.1338C372.567 53.3119 372.536 53.5073 372.536 53.72C372.536 53.9343 372.567 54.1304 372.631 54.3084C372.696 54.4865 372.795 54.6291 372.929 54.7362C373.063 54.8433 373.233 54.8968 373.437 54.8968ZM377.112 56.6946C376.847 56.6946 376.619 56.6599 376.428 56.5904C376.238 56.5209 376.084 56.429 375.963 56.3146C375.843 56.2003 375.753 56.0751 375.694 55.939L376.252 55.7089C376.291 55.7726 376.343 55.8399 376.408 55.9108C376.475 55.9832 376.565 56.0447 376.678 56.0954C376.792 56.146 376.939 56.1713 377.118 56.1713C377.365 56.1713 377.568 56.1113 377.729 55.9911C377.889 55.8724 377.97 55.6828 377.97 55.4223V54.7666H377.928C377.889 54.8375 377.833 54.9164 377.759 55.0032C377.687 55.0901 377.587 55.1654 377.459 55.229C377.332 55.2927 377.166 55.3246 376.962 55.3246C376.699 55.3246 376.461 55.2631 376.25 55.14C376.04 55.0155 375.874 54.8324 375.751 54.5907C375.629 54.3475 375.568 54.0486 375.568 53.694C375.568 53.3394 375.628 53.0354 375.748 52.7821C375.87 52.5288 376.036 52.3348 376.248 52.2002C376.459 52.0641 376.699 51.9961 376.966 51.9961C377.173 51.9961 377.341 52.0308 377.468 52.1003C377.595 52.1684 377.695 52.248 377.765 52.3392C377.838 52.4304 377.894 52.5107 377.933 52.5802H377.98V52.0395H378.617V55.4483C378.617 55.7349 378.55 55.9701 378.417 56.154C378.284 56.3378 378.103 56.4739 377.876 56.5622C377.65 56.6505 377.396 56.6946 377.112 56.6946ZM377.105 54.7861C377.292 54.7861 377.45 54.7427 377.579 54.6558C377.709 54.5675 377.807 54.4416 377.874 54.2781C377.942 54.113 377.976 53.9155 377.976 53.6853C377.976 53.461 377.943 53.2634 377.876 53.0926C377.81 52.9218 377.712 52.7886 377.583 52.6931C377.454 52.5961 377.295 52.5476 377.105 52.5476C376.91 52.5476 376.747 52.5983 376.617 52.6996C376.487 52.7995 376.388 52.9355 376.322 53.1078C376.256 53.28 376.224 53.4725 376.224 53.6853C376.224 53.9039 376.257 54.0957 376.324 54.2607C376.39 54.4257 376.489 54.5545 376.619 54.6472C376.751 54.7398 376.913 54.7861 377.105 54.7861ZM379.898 56.6251C379.801 56.6251 379.712 56.6172 379.633 56.6012C379.553 56.5868 379.494 56.5708 379.455 56.5535L379.611 56.0215C379.73 56.0534 379.835 56.0671 379.928 56.0628C380.021 56.0584 380.102 56.0237 380.173 55.9586C380.246 55.8934 380.309 55.787 380.364 55.6394L380.445 55.4179L379.225 52.0395H379.919L380.764 54.6276H380.799L381.643 52.0395H382.34L380.966 55.8196C380.902 55.9933 380.821 56.1402 380.723 56.2604C380.624 56.382 380.507 56.4731 380.371 56.5339C380.235 56.5947 380.077 56.6251 379.898 56.6251Z" fill="white"/>
</g>
<path d="M333.217 42.0298H376.401C382.483 42.0298 387.414 46.9599 387.414 53.0415C387.414 59.1233 382.483 64.0542 376.401 64.0542H333.217C327.135 64.054 322.205 59.1231 322.205 53.0415C322.205 46.9601 327.135 42.03 333.217 42.0298Z" stroke="url(#paint0_linear_574_24036)" stroke-width="0.431845" shape-rendering="crispEdges"/>
</g>
</g>
<rect x="0.5" y="0.5" width="415" height="240" rx="3.5" stroke="#BFBFBF"/>
<defs>
<filter id="filter0_di_574_24036" x="315.44" y="35.8401" width="78.7399" height="35.5553" filterUnits="userSpaceOnUse" color-interpolation-filters="sRGB">
<feFlood flood-opacity="0" result="BackgroundImageFix"/>
<feColorMatrix in="SourceAlpha" type="matrix" values="0 0 0 0 0 0 0 0 0 0 0 0 0 0 0 0 0 0 127 0" result="hardAlpha"/>
<feOffset dy="0.575793"/>
<feGaussianBlur stdDeviation="3.27482"/>
<feComposite in2="hardAlpha" operator="out"/>
<feColorMatrix type="matrix" values="0 0 0 0 0.905882 0 0 0 0 0.247059 0 0 0 0 0.12549 0 0 0 0.69 0"/>
<feBlend mode="normal" in2="BackgroundImageFix" result="effect1_dropShadow_574_24036"/>
<feBlend mode="normal" in="SourceGraphic" in2="effect1_dropShadow_574_24036" result="shape"/>
<feColorMatrix in="SourceAlpha" type="matrix" values="0 0 0 0 0 0 0 0 0 0 0 0 0 0 0 0 0 0 127 0" result="hardAlpha"/>
<feOffset dy="0.143948"/>
<feGaussianBlur stdDeviation="3.17406"/>
<feComposite in2="hardAlpha" operator="arithmetic" k2="-1" k3="1"/>
<feColorMatrix type="matrix" values="0 0 0 0 0 0 0 0 0 0 0 0 0 0 0 0 0 0 1 0"/>
<feBlend mode="normal" in2="shape" result="effect2_innerShadow_574_24036"/>
</filter>
<linearGradient id="paint0_linear_574_24036" x1="357.688" y1="64.2699" x2="350.779" y2="41.814" gradientUnits="userSpaceOnUse">
<stop stop-color="#FF8A75"/>
<stop offset="0.835" stop-color="#FFA595"/>
<stop offset="1" stop-color="white"/>
</linearGradient>
<clipPath id="clip0_574_24036">
<rect width="416" height="241" rx="4" fill="white"/>
</clipPath>
<clipPath id="clip1_574_24036">
<path d="M321.989 53.0419C321.989 46.8409 327.016 41.814 333.217 41.814H376.402C382.603 41.814 387.63 46.8409 387.63 53.0419C387.63 59.243 382.603 64.2699 376.402 64.2699H333.217C327.016 64.2699 321.989 59.243 321.989 53.0419Z" fill="white"/>
</clipPath>
</defs>
</svg>
